<svg width="25" height="24" viewBox="0 0 25 24" fill="none" xmlns="http://www.w3.org/2000/svg">
<path fill-rule="evenodd" clip-rule="evenodd" d="M12.0107 2C6.49074 2 2.01074 6.48 2.01074 12C2.01074 17.52 6.49074 22 12.0107 22C17.5307 22 22.0107 17.52 22.0107 12C22.0107 6.48 17.5307 2 12.0107 2ZM12.0107 5C13.6707 5 15.0107 6.34 15.0107 8C15.0107 9.66 13.6707 11 12.0107 11C10.3507 11 9.01074 9.66 9.01074 8C9.01074 6.34 10.3507 5 12.0107 5ZM6.01074 15.98C7.30074 17.92 9.51074 19.2 12.0107 19.2C14.5107 19.2 16.7207 17.92 18.0107 15.98C17.9807 13.99 14.0007 12.9 12.0107 12.9C10.0107 12.9 6.04074 13.99 6.01074 15.98Z" fill="white"/>
<mask id="mask0" mask-type="alpha" maskUnits="userSpaceOnUse" x="2" y="2" width="21" height="20">
<path fill-rule="evenodd" clip-rule="evenodd" d="M12.0107 2C6.49074 2 2.01074 6.48 2.01074 12C2.01074 17.52 6.49074 22 12.0107 22C17.5307 22 22.0107 17.52 22.0107 12C22.0107 6.48 17.5307 2 12.0107 2ZM12.0107 5C13.6707 5 15.0107 6.34 15.0107 8C15.0107 9.66 13.6707 11 12.0107 11C10.3507 11 9.01074 9.66 9.01074 8C9.01074 6.34 10.3507 5 12.0107 5ZM6.01074 15.98C7.30074 17.92 9.51074 19.2 12.0107 19.2C14.5107 19.2 16.7207 17.92 18.0107 15.98C17.9807 13.99 14.0007 12.9 12.0107 12.9C10.0107 12.9 6.04074 13.99 6.01074 15.98Z" fill="white"/>
</mask>
<g mask="url(#mask0)">
<rect x="0.0107422" width="24" height="24" rx="4" fill="#C7CCD1"/>
</g>
</svg>
