<svg width="66" height="64" viewBox="0 0 66 64" fill="none" xmlns="http://www.w3.org/2000/svg">
<path fill-rule="evenodd" clip-rule="evenodd" d="M44.416 21.0296C43.4664 20.222 42.1008 20.2405 41.3172 20.4749C41.8304 19.8638 43.0263 19.3623 43.3782 19.3016C43.6463 19.3991 44.416 20.1661 44.416 21.0296ZM48.5157 17.8809C47.8364 14.413 39.393 16.7112 35.1408 15.2381C35.0595 16.2491 36.4499 17.869 37.78 18.4682C35.5067 20.3517 33.4656 24.1465 33.0533 28.7824C32.6428 24.1465 30.6016 20.3517 28.3282 18.4684C29.6581 17.8692 31.0499 16.2493 30.9672 15.2385C26.7152 16.7116 18.2716 14.4136 17.5912 17.8816C17.4481 18.6158 17.8181 19.734 18.2176 20.0558C18.2892 19.8232 18.6625 19.0622 19.8395 18.8917C25.7881 18.0338 30.7547 26.7847 26.2715 30.3229C26.2031 30.3773 26.2419 30.4762 26.3341 30.4762H39.7753C39.8664 30.4762 39.9051 30.377 39.8377 30.3231C35.3533 26.7852 40.3199 18.0342 46.2687 18.8922C47.4464 19.0626 47.8189 19.8234 47.8906 20.056C48.2902 19.7343 48.6601 18.616 48.5159 17.8818L48.5157 17.8809ZM49.1553 9.61699C49.0524 9.27851 52.4031 9.26998 52.4031 11.4228C52.4031 12.8652 50.3988 13.5484 50.3988 15.0456C50.3988 15.7428 51.1296 16.254 51.3539 16.254C50.8375 13.8507 52.9721 15.1085 53.5486 15.5577C52.4031 12.3257 54.9814 12.3459 54.7276 10.864C54.551 9.82856 52.3097 10.1412 51.4988 9.61699C50.0594 8.68714 48.3566 5.06813 47.2345 8.68714C49.3264 10.6805 48.1091 13.6149 45.4533 13.6149C45.4533 13.6149 45.4387 14.045 45.463 14.0792C48.6305 13.9201 49.7347 11.5304 49.1553 9.61699V9.61699ZM11.5261 15.5577C12.1024 15.1085 14.2368 13.8508 13.7217 16.254C13.9449 16.254 14.6757 15.7428 14.6757 15.0456C14.6757 13.5485 12.6714 12.8652 12.6714 11.4229C12.6714 9.27007 16.0219 9.27861 15.9192 9.61708C15.3407 11.5307 16.4448 13.9204 19.6124 14.0792C19.6358 14.045 19.6212 13.6147 19.6212 13.6147C16.9665 13.6147 15.7492 10.6806 17.84 8.68701C16.7179 5.06828 15.0151 8.68701 13.5757 9.61685C12.7646 10.1413 10.5232 9.82843 10.3469 10.864C10.0941 12.3464 12.6716 12.3262 11.5263 15.5582L11.5261 15.5577ZM20.6588 21.0296C21.6092 20.222 22.9752 20.2405 23.7574 20.4749C23.2464 19.8638 22.0484 19.3623 21.6974 19.3016C21.4293 19.3991 20.6586 20.1661 20.6586 21.0296H20.6588ZM34.0865 1.98L32.5374 0L30.9879 1.98L32.537 4.06349L34.0867 1.98H34.0865ZM43.3829 7.63643L42.3498 6.09524L41.3172 7.63643L42.3496 9.14286L43.3831 7.63643H43.3829ZM52.6792 46.3219L51.1302 44.6984L49.5807 46.3216L51.1302 47.746L52.6795 46.3216L52.6792 46.3219ZM23.7572 7.63643L22.7241 6.09524L21.6915 7.63643L22.7243 9.14286L23.7574 7.63643H23.7572ZM20.7916 14.222H25.0456C28.6221 14.222 30.2313 12.0399 30.7176 10.1476H34.3568C34.8433 12.0399 36.4515 14.2218 40.0292 14.2218H44.2832C44.2832 14.2218 45.0273 13.2183 45.214 12.7214C45.8858 10.9334 45.0273 10.0993 43.7747 10.0993L42.1553 11.5581L40.5363 10.0997C39.2838 10.0997 38.4252 10.9334 39.0971 12.7216C39.1829 12.9501 39.3882 13.286 39.5827 13.5813C38.0732 13.3752 36.1463 12.348 35.7238 10.1476C35.7238 10.1476 36.839 8.38669 37.1193 7.67399C38.1247 5.11099 36.8404 4.06349 34.962 4.06349L32.537 6.89671L30.112 4.06349C28.2337 4.06349 26.9496 5.11099 27.9562 7.67399C28.2349 8.38669 29.3514 10.1478 29.3514 10.1478C28.9278 12.348 27.0014 13.3752 25.4919 13.5815C25.6872 13.2858 25.8916 12.9501 25.977 12.7214C26.6477 10.9334 25.7915 10.0995 24.538 10.0995L22.9186 11.5583L21.2992 10.0999C20.0459 10.0999 19.1897 10.9337 19.8604 12.7219C20.047 13.2185 20.7922 14.2222 20.7922 14.2222L20.7916 14.222ZM64.3902 26.6334C63.5865 27.0343 58.8712 29.2112 52.831 28.406C52.8936 28.1221 52.9467 27.8362 52.9902 27.5488C57.0103 27.0749 60.2781 26.4028 62.3606 25.2613C64.7344 23.9591 65.7724 20.8505 64.5743 18.5382C64.5432 18.4799 64.4571 18.4694 64.4142 18.5185C63.7575 19.2635 59.6291 23.6896 53.1245 25.0656C53.1079 24.7335 53.0771 24.4022 53.0322 24.0726C56.1915 22.3069 59.2756 20.2725 60.7447 18.4122C62.9644 15.5996 62.7603 12.0119 60.6478 10.1827C60.6259 10.1641 60.5968 10.1557 60.5682 10.1597C60.5395 10.1637 60.514 10.1797 60.4982 10.2035C59.8298 11.2903 53.5736 21.2556 46.7051 25.5582C46.6213 25.611 46.5368 25.6627 46.4516 25.7133C46.2546 25.8312 46.2331 26.0836 46.4005 26.2333C47.1928 26.9406 47.6849 27.9248 47.6849 29.0178C47.6849 30.9181 46.1988 32.4984 44.2344 32.8413C43.2361 33.0319 41.7954 32.9765 40.411 32.5253C40.3488 32.5056 40.2843 32.5462 40.2843 32.6077V38.6255C40.2843 38.7223 40.4337 38.7464 40.4688 38.654C41.3106 36.4567 43.8293 35.99 44.9309 35.99C45.3273 38.338 46.0354 40.2829 46.9552 41.3298C48.4532 43.0308 50.8992 43.0069 51.9597 41.8309C51.9771 41.8114 51.9846 41.7851 51.9799 41.7595C51.9753 41.7339 51.9591 41.7118 51.9359 41.6994C51.3128 41.3467 47.7473 39.189 47.0337 35.6536C47.3138 35.5599 47.5876 35.4489 47.8536 35.3212C49.0046 37.1984 50.6798 38.8702 52.0284 39.5089C54.2939 40.5798 56.3678 40.0589 57.2876 38.4912C57.3209 38.4359 57.28 38.3671 57.2124 38.361C55.8111 38.2508 51.5106 37.036 49.6796 34.0767C49.8913 33.8871 50.0936 33.6875 50.2856 33.4785C52.2021 34.9163 54.9109 36.1872 56.8505 36.4466C59.12 36.7507 61.6914 36.0369 61.7536 33.436C61.7547 33.384 61.7074 33.3413 61.6514 33.3444C60.8443 33.3926 55.5029 33.6216 51.6967 31.4683C51.829 31.2206 51.9523 30.9683 52.0665 30.7119C52.0665 30.7119 57.8176 32.0518 60.5426 31.6081C63.2506 31.1677 64.8366 29.1781 64.5305 26.7028C64.5216 26.6415 64.4487 26.6049 64.3904 26.634L64.3902 26.6334ZM13.0073 30.7107C13.1218 30.9672 13.2454 31.2195 13.378 31.4674C9.57274 33.6196 4.23341 33.3924 3.42278 33.3435C3.36587 33.3404 3.31829 33.3851 3.31962 33.4362C3.38299 36.0363 5.9536 36.75 8.22318 36.4459C10.1619 36.1864 12.8722 34.9155 14.788 33.4778C14.9803 33.6866 15.1826 33.8862 15.3941 34.076C13.5621 37.0353 9.26214 38.2503 7.861 38.3606C7.79319 38.3671 7.75361 38.4357 7.78585 38.4909C8.70564 40.0588 10.7796 40.5796 13.0463 39.5088C14.3936 38.87 16.0689 37.1981 17.2194 35.3209C17.4857 35.4482 17.7597 35.5592 18.0399 35.6533C17.3262 39.1889 13.7606 41.3461 13.1374 41.6996C13.1144 41.7121 13.0983 41.7342 13.0937 41.7597C13.0891 41.7852 13.0964 41.8115 13.1136 41.831C14.1741 43.0069 16.6211 43.0307 18.1192 41.3297C19.039 40.2827 19.7463 38.3378 20.1425 35.9896C21.2452 35.9896 23.7632 36.4564 24.6047 38.6535C24.6409 38.7462 24.7903 38.7221 24.7903 38.625V32.6072C24.7903 32.5459 24.7247 32.5051 24.6625 32.5249C23.2785 32.9763 21.8373 33.031 20.8401 32.8404C18.8747 32.4979 17.3884 30.9176 17.3884 29.0173C17.3884 27.9248 17.882 26.9394 18.6726 26.2323C18.8416 26.0833 18.8187 25.8308 18.6233 25.713C18.5374 25.6624 18.4521 25.6107 18.3676 25.558C11.5028 21.2577 5.24992 11.2988 4.5758 10.2049C4.5598 10.1804 4.53383 10.164 4.5046 10.1598C4.47536 10.1556 4.44571 10.164 4.42328 10.183C2.31379 12.0133 2.1088 15.5997 4.32879 18.4118C5.79797 20.2721 8.88217 22.3067 12.0404 24.0724C11.9959 24.4018 11.9655 24.733 11.9493 25.065C5.4498 23.6902 1.3244 19.2714 0.661406 18.5211C0.61694 18.4698 0.529118 18.4801 0.499103 18.5386C-0.697049 20.8526 0.341247 23.9587 2.71265 25.2609C4.79547 26.4025 8.06354 27.0746 12.0835 27.5486C12.127 27.8359 12.18 28.1218 12.2425 28.4058C6.2084 29.21 1.49538 27.038 0.685196 26.6339C0.625166 26.6037 0.552241 26.6412 0.544682 26.7036C0.239418 29.1788 1.82443 31.1665 4.53245 31.6072C7.2567 32.0509 13.0078 30.711 13.0078 30.711L13.0073 30.7107ZM50.8114 49.5264L48.6986 47.8813C47.8554 48.3782 47.2358 49.1671 46.9951 50.0919C45.7242 50.2678 42.2598 49.5063 42.5967 49.0011C46.3937 43.7154 43.4895 40.5682 39.9988 40.7435V44.2929C39.9988 45.4331 38.9935 46.3571 37.7551 46.3571H35.3447C33.6156 46.3571 32.4899 48.0772 32.4899 48.0772C32.4899 48.0772 31.3643 46.3568 29.6352 46.3568H27.225C25.9854 46.3568 24.9824 45.4329 24.9824 44.2929V40.7435C21.4917 40.5682 18.5852 43.7152 22.3834 49.0009C22.7174 49.5009 19.1561 50.3013 17.4858 50.099C17.0456 49.6473 16.4108 49.3625 15.7 49.3625C15.3978 49.3627 15.098 49.416 14.8146 49.52C14.8146 49.52 8.25074 43.3691 8.1306 43.309L8.18439 43.1848C8.55872 42.4926 7.98647 41.7384 7.6247 41.7916C8.04497 41.2925 8.06447 39.1085 5.7329 38.6032C5.80127 39.042 5.83601 39.9373 5.83601 39.9373C5.83601 39.9373 4.03656 38.9745 3.13281 39.8055C2.33888 40.7357 3.44056 42.4232 3.44056 42.4232C3.44056 42.4232 2.51977 42.4454 2.06587 42.4072C2.73315 44.6411 4.97148 44.483 5.45563 44.0422C5.42425 44.3971 6.23342 44.9036 6.91931 44.4976L7.22056 44.3534C7.27369 44.4237 13.6666 50.4016 13.6666 50.4016C13.3729 50.8328 13.2333 51.3621 13.3297 51.9265C13.4814 52.8083 14.2233 53.5393 15.1715 53.7292C15.841 53.8623 16.4704 53.7336 16.9752 53.4412L18.6675 54.9956C18.8177 55.1309 19.0216 55.2152 19.2489 55.1993C19.6629 55.1718 19.9729 54.8399 19.9415 54.459C19.9281 54.2871 19.8393 54.1396 19.7169 54.0275C19.69 53.9982 17.9933 52.4392 17.9933 52.4392C19.3931 51.4682 22.001 50.7838 24.1654 50.7838C24.5455 50.7838 24.7244 50.4653 24.5935 50.1531C23.6128 47.8194 25.7209 46.1286 27.9019 47.5048C28.8532 48.1049 29.8194 49.2871 30.5475 51.2594C26.9694 52.1168 22.4766 54.4792 21.5677 57.0578C21.2176 58.0534 22.3738 59.4106 23.7778 59.6837C23.8026 59.6891 23.8286 59.6844 23.85 59.6708C23.8713 59.6571 23.8862 59.6356 23.8914 59.6109C24.6249 55.7614 28.8079 52.8928 30.9843 52.4057C31.0935 52.6956 31.0579 52.6018 31.1672 52.8906C28.7967 54.0002 26.4978 56.3402 25.8415 59.1225C25.54 60.3965 26.9757 61.5449 28.1608 61.8593C28.2204 61.8748 28.2789 61.834 28.2823 61.7772C28.5075 58.2588 30.0772 55.2707 31.4835 53.9115C31.522 54.1773 31.551 54.4445 31.5703 54.7123C31.5703 54.7123 30.1303 58.6828 30.1303 61.5798C30.1303 62.9276 32.1544 63.8685 32.4532 64C32.8268 63.8685 34.8493 62.9276 34.8493 61.5798C34.8493 58.6826 33.4098 54.7121 33.4098 54.7121C33.4295 54.4442 33.4588 54.1771 33.4977 53.9113C34.9031 55.2711 36.4737 58.2577 36.6981 61.7761C36.7007 61.8041 36.7157 61.8295 36.739 61.8455C36.7624 61.8616 36.7917 61.8666 36.8191 61.8593C38.0057 61.5449 39.44 60.3965 39.1399 59.1225C38.4823 56.3406 36.1845 54.0002 33.8142 52.8906C33.9224 52.6018 33.8866 52.6954 33.9962 52.4055C36.1738 52.8926 40.3552 55.7612 41.0889 59.6107C41.1 59.6618 41.1509 59.6942 41.2025 59.6833C42.6057 59.4104 43.7636 58.0528 43.4115 57.0574C42.5048 54.4787 38.0109 52.1164 34.4322 51.259C35.1615 49.2869 36.128 48.1045 37.0793 47.5044C39.2589 46.1281 41.3672 47.8187 40.3866 50.1527C40.2557 50.4648 40.4332 50.7834 40.8147 50.7834C43.2631 50.7834 46.2794 51.6585 47.473 52.8325C48.2358 53.9652 49.645 54.6897 51.2355 54.5346C53.0426 54.3594 54.5161 53.0159 54.7196 51.3548C54.8974 49.8996 54.1369 48.593 52.9247 47.8809L50.811 49.5262L50.8114 49.5264ZM34.9985 38.9509C35.7195 38.686 36.8499 38.9003 36.8115 39.9312C36.8022 40.1651 37.1331 40.1651 37.1572 39.9263C37.373 38.3826 36.3197 37.9381 35.2173 38.1189C35.0803 37.5881 34.9682 37.1242 34.8406 36.6644C34.7389 36.2923 34.7015 35.5936 35.1363 35.5936C35.3708 35.5936 35.2766 36.2434 35.2544 36.5234C35.2351 36.769 35.3242 36.9177 35.5256 36.9247C35.651 36.9298 35.8078 36.7712 35.9014 36.6659C36.5323 35.9593 36.6788 34.8655 35.9396 34.3379C35.3212 33.895 33.7726 34.2246 33.347 34.8555C33.2826 34.6178 32.9755 34.2254 32.8282 34.0547C32.685 33.8878 32.6478 33.7736 32.8458 33.6273C32.9392 33.5563 33.2216 33.2781 33.2216 32.9911C33.2216 32.8214 33.0884 32.5079 32.6663 32.5079C32.333 32.5079 31.9626 32.7363 31.9626 33.2458C31.9626 33.3591 31.9905 33.4803 32.0642 33.6109C31.8537 33.5765 31.2817 33.5905 30.9879 33.6624L35.0492 44.6984C36.2117 44.1302 37.064 43.2306 37.064 42.265C37.064 41.442 35.84 41.7151 35.2456 42.357C35.0545 41.3136 34.8845 40.3501 34.6985 39.3898C34.6478 39.1249 34.7837 39.0298 34.9985 38.9501V38.9509ZM29.5995 31.7669L30.4708 34.1151C29.7249 34.2874 28.5252 34.8149 28.5252 35.5136C28.5252 36.4439 30.2222 37.0497 31.2031 36.977C31.1545 37.1892 31.2106 37.3783 31.3632 37.5512C31.0071 37.5512 30.3353 37.712 30.1148 37.9426C29.5945 37.4725 28.7806 37.3013 28.3936 37.5874C28.0049 37.8758 27.9933 38.3642 28.3991 38.9163C28.6819 39.2986 28.7881 39.6757 28.4701 40.1185C29.6526 40.1185 29.2171 38.6271 29.6804 38.6271C29.6197 38.9163 29.6567 39.2509 29.7914 39.6221C29.8804 39.8688 29.8804 40.0441 29.7278 40.2814C29.3463 40.8732 28.753 42.2319 28.8332 43.4608C28.4456 43.4587 28.2485 43.3668 28.3851 42.8529C28.4359 42.6619 28.3143 42.5254 28.1531 42.7611C27.9751 43.021 27.8891 43.4651 27.8891 43.6548C27.8891 44.7489 29.2331 44.9693 29.7458 44.7379C31.2294 46.131 34.144 45.7592 35.1196 45.292L29.9885 31.634C29.8837 31.376 29.5074 31.4993 29.5995 31.7673V31.7669ZM28.9309 43.6825C28.8309 43.0073 29.5907 41.8 30.5574 40.6349C30.3516 41.3943 30.4795 42.7024 30.8829 43.1531C30.1818 43.1531 29.349 43.3159 28.9307 43.6825V43.6825H28.9309Z" fill="#FEFEFE"/>
<mask id="mask0" mask-type="alpha" maskUnits="userSpaceOnUse" x="0" y="0" width="66" height="64">
<path fill-rule="evenodd" clip-rule="evenodd" d="M44.416 21.0296C43.4664 20.222 42.1008 20.2405 41.3172 20.4749C41.8304 19.8638 43.0263 19.3623 43.3782 19.3016C43.6463 19.3991 44.416 20.1661 44.416 21.0296ZM48.5157 17.8809C47.8364 14.413 39.393 16.7112 35.1408 15.2381C35.0595 16.2491 36.4499 17.869 37.78 18.4682C35.5067 20.3517 33.4656 24.1465 33.0533 28.7824C32.6428 24.1465 30.6016 20.3517 28.3282 18.4684C29.6581 17.8692 31.0499 16.2493 30.9672 15.2385C26.7152 16.7116 18.2716 14.4136 17.5912 17.8816C17.4481 18.6158 17.8181 19.734 18.2176 20.0558C18.2892 19.8232 18.6625 19.0622 19.8395 18.8917C25.7881 18.0338 30.7547 26.7847 26.2715 30.3229C26.2031 30.3773 26.2419 30.4762 26.3341 30.4762H39.7753C39.8664 30.4762 39.9051 30.377 39.8377 30.3231C35.3533 26.7852 40.3199 18.0342 46.2687 18.8922C47.4464 19.0626 47.8189 19.8234 47.8906 20.056C48.2902 19.7343 48.6601 18.616 48.5159 17.8818L48.5157 17.8809ZM49.1553 9.61699C49.0524 9.27851 52.4031 9.26998 52.4031 11.4228C52.4031 12.8652 50.3988 13.5484 50.3988 15.0456C50.3988 15.7428 51.1296 16.254 51.3539 16.254C50.8375 13.8507 52.9721 15.1085 53.5486 15.5577C52.4031 12.3257 54.9814 12.3459 54.7276 10.864C54.551 9.82856 52.3097 10.1412 51.4988 9.61699C50.0594 8.68714 48.3566 5.06813 47.2345 8.68714C49.3264 10.6805 48.1091 13.6149 45.4533 13.6149C45.4533 13.6149 45.4387 14.045 45.463 14.0792C48.6305 13.9201 49.7347 11.5304 49.1553 9.61699V9.61699ZM11.5261 15.5577C12.1024 15.1085 14.2368 13.8508 13.7217 16.254C13.9449 16.254 14.6757 15.7428 14.6757 15.0456C14.6757 13.5485 12.6714 12.8652 12.6714 11.4229C12.6714 9.27007 16.0219 9.27861 15.9192 9.61708C15.3407 11.5307 16.4448 13.9204 19.6124 14.0792C19.6358 14.045 19.6212 13.6147 19.6212 13.6147C16.9665 13.6147 15.7492 10.6806 17.84 8.68701C16.7179 5.06828 15.0151 8.68701 13.5757 9.61685C12.7646 10.1413 10.5232 9.82843 10.3469 10.864C10.0941 12.3464 12.6716 12.3262 11.5263 15.5582L11.5261 15.5577ZM20.6588 21.0296C21.6092 20.222 22.9752 20.2405 23.7574 20.4749C23.2464 19.8638 22.0484 19.3623 21.6974 19.3016C21.4293 19.3991 20.6586 20.1661 20.6586 21.0296H20.6588ZM34.0865 1.98L32.5374 0L30.9879 1.98L32.537 4.06349L34.0867 1.98H34.0865ZM43.3829 7.63643L42.3498 6.09524L41.3172 7.63643L42.3496 9.14286L43.3831 7.63643H43.3829ZM52.6792 46.3219L51.1302 44.6984L49.5807 46.3216L51.1302 47.746L52.6795 46.3216L52.6792 46.3219ZM23.7572 7.63643L22.7241 6.09524L21.6915 7.63643L22.7243 9.14286L23.7574 7.63643H23.7572ZM20.7916 14.222H25.0456C28.6221 14.222 30.2313 12.0399 30.7176 10.1476H34.3568C34.8433 12.0399 36.4515 14.2218 40.0292 14.2218H44.2832C44.2832 14.2218 45.0273 13.2183 45.214 12.7214C45.8858 10.9334 45.0273 10.0993 43.7747 10.0993L42.1553 11.5581L40.5363 10.0997C39.2838 10.0997 38.4252 10.9334 39.0971 12.7216C39.1829 12.9501 39.3882 13.286 39.5827 13.5813C38.0732 13.3752 36.1463 12.348 35.7238 10.1476C35.7238 10.1476 36.839 8.38669 37.1193 7.67399C38.1247 5.11099 36.8404 4.06349 34.962 4.06349L32.537 6.89671L30.112 4.06349C28.2337 4.06349 26.9496 5.11099 27.9562 7.67399C28.2349 8.38669 29.3514 10.1478 29.3514 10.1478C28.9278 12.348 27.0014 13.3752 25.4919 13.5815C25.6872 13.2858 25.8916 12.9501 25.977 12.7214C26.6477 10.9334 25.7915 10.0995 24.538 10.0995L22.9186 11.5583L21.2992 10.0999C20.0459 10.0999 19.1897 10.9337 19.8604 12.7219C20.047 13.2185 20.7922 14.2222 20.7922 14.2222L20.7916 14.222ZM64.3902 26.6334C63.5865 27.0343 58.8712 29.2112 52.831 28.406C52.8936 28.1221 52.9467 27.8362 52.9902 27.5488C57.0103 27.0749 60.2781 26.4028 62.3606 25.2613C64.7344 23.9591 65.7724 20.8505 64.5743 18.5382C64.5432 18.4799 64.4571 18.4694 64.4142 18.5185C63.7575 19.2635 59.6291 23.6896 53.1245 25.0656C53.1079 24.7335 53.0771 24.4022 53.0322 24.0726C56.1915 22.3069 59.2756 20.2725 60.7447 18.4122C62.9644 15.5996 62.7603 12.0119 60.6478 10.1827C60.6259 10.1641 60.5968 10.1557 60.5682 10.1597C60.5395 10.1637 60.514 10.1797 60.4982 10.2035C59.8298 11.2903 53.5736 21.2556 46.7051 25.5582C46.6213 25.611 46.5368 25.6627 46.4516 25.7133C46.2546 25.8312 46.2331 26.0836 46.4005 26.2333C47.1928 26.9406 47.6849 27.9248 47.6849 29.0178C47.6849 30.9181 46.1988 32.4984 44.2344 32.8413C43.2361 33.0319 41.7954 32.9765 40.411 32.5253C40.3488 32.5056 40.2843 32.5462 40.2843 32.6077V38.6255C40.2843 38.7223 40.4337 38.7464 40.4688 38.654C41.3106 36.4567 43.8293 35.99 44.9309 35.99C45.3273 38.338 46.0354 40.2829 46.9552 41.3298C48.4532 43.0308 50.8992 43.0069 51.9597 41.8309C51.9771 41.8114 51.9846 41.7851 51.9799 41.7595C51.9753 41.7339 51.9591 41.7118 51.9359 41.6994C51.3128 41.3467 47.7473 39.189 47.0337 35.6536C47.3138 35.5599 47.5876 35.4489 47.8536 35.3212C49.0046 37.1984 50.6798 38.8702 52.0284 39.5089C54.2939 40.5798 56.3678 40.0589 57.2876 38.4912C57.3209 38.4359 57.28 38.3671 57.2124 38.361C55.8111 38.2508 51.5106 37.036 49.6796 34.0767C49.8913 33.8871 50.0936 33.6875 50.2856 33.4785C52.2021 34.9163 54.9109 36.1872 56.8505 36.4466C59.12 36.7507 61.6914 36.0369 61.7536 33.436C61.7547 33.384 61.7074 33.3413 61.6514 33.3444C60.8443 33.3926 55.5029 33.6216 51.6967 31.4683C51.829 31.2206 51.9523 30.9683 52.0665 30.7119C52.0665 30.7119 57.8176 32.0518 60.5426 31.6081C63.2506 31.1677 64.8366 29.1781 64.5305 26.7028C64.5216 26.6415 64.4487 26.6049 64.3904 26.634L64.3902 26.6334ZM13.0073 30.7107C13.1218 30.9672 13.2454 31.2195 13.378 31.4674C9.57274 33.6196 4.23341 33.3924 3.42278 33.3435C3.36587 33.3404 3.31829 33.3851 3.31962 33.4362C3.38299 36.0363 5.9536 36.75 8.22318 36.4459C10.1619 36.1864 12.8722 34.9155 14.788 33.4778C14.9803 33.6866 15.1826 33.8862 15.3941 34.076C13.5621 37.0353 9.26214 38.2503 7.861 38.3606C7.79319 38.3671 7.75361 38.4357 7.78585 38.4909C8.70564 40.0588 10.7796 40.5796 13.0463 39.5088C14.3936 38.87 16.0689 37.1981 17.2194 35.3209C17.4857 35.4482 17.7597 35.5592 18.0399 35.6533C17.3262 39.1889 13.7606 41.3461 13.1374 41.6996C13.1144 41.7121 13.0983 41.7342 13.0937 41.7597C13.0891 41.7852 13.0964 41.8115 13.1136 41.831C14.1741 43.0069 16.6211 43.0307 18.1192 41.3297C19.039 40.2827 19.7463 38.3378 20.1425 35.9896C21.2452 35.9896 23.7632 36.4564 24.6047 38.6535C24.6409 38.7462 24.7903 38.7221 24.7903 38.625V32.6072C24.7903 32.5459 24.7247 32.5051 24.6625 32.5249C23.2785 32.9763 21.8373 33.031 20.8401 32.8404C18.8747 32.4979 17.3884 30.9176 17.3884 29.0173C17.3884 27.9248 17.882 26.9394 18.6726 26.2323C18.8416 26.0833 18.8187 25.8308 18.6233 25.713C18.5374 25.6624 18.4521 25.6107 18.3676 25.558C11.5028 21.2577 5.24992 11.2988 4.5758 10.2049C4.5598 10.1804 4.53383 10.164 4.5046 10.1598C4.47536 10.1556 4.44571 10.164 4.42328 10.183C2.31379 12.0133 2.1088 15.5997 4.32879 18.4118C5.79797 20.2721 8.88217 22.3067 12.0404 24.0724C11.9959 24.4018 11.9655 24.733 11.9493 25.065C5.4498 23.6902 1.3244 19.2714 0.661406 18.5211C0.61694 18.4698 0.529118 18.4801 0.499103 18.5386C-0.697049 20.8526 0.341247 23.9587 2.71265 25.2609C4.79547 26.4025 8.06354 27.0746 12.0835 27.5486C12.127 27.8359 12.18 28.1218 12.2425 28.4058C6.2084 29.21 1.49538 27.038 0.685196 26.6339C0.625166 26.6037 0.552241 26.6412 0.544682 26.7036C0.239418 29.1788 1.82443 31.1665 4.53245 31.6072C7.2567 32.0509 13.0078 30.711 13.0078 30.711L13.0073 30.7107ZM50.8114 49.5264L48.6986 47.8813C47.8554 48.3782 47.2358 49.1671 46.9951 50.0919C45.7242 50.2678 42.2598 49.5063 42.5967 49.0011C46.3937 43.7154 43.4895 40.5682 39.9988 40.7435V44.2929C39.9988 45.4331 38.9935 46.3571 37.7551 46.3571H35.3447C33.6156 46.3571 32.4899 48.0772 32.4899 48.0772C32.4899 48.0772 31.3643 46.3568 29.6352 46.3568H27.225C25.9854 46.3568 24.9824 45.4329 24.9824 44.2929V40.7435C21.4917 40.5682 18.5852 43.7152 22.3834 49.0009C22.7174 49.5009 19.1561 50.3013 17.4858 50.099C17.0456 49.6473 16.4108 49.3625 15.7 49.3625C15.3978 49.3627 15.098 49.416 14.8146 49.52C14.8146 49.52 8.25074 43.3691 8.1306 43.309L8.18439 43.1848C8.55872 42.4926 7.98647 41.7384 7.6247 41.7916C8.04497 41.2925 8.06447 39.1085 5.7329 38.6032C5.80127 39.042 5.83601 39.9373 5.83601 39.9373C5.83601 39.9373 4.03656 38.9745 3.13281 39.8055C2.33888 40.7357 3.44056 42.4232 3.44056 42.4232C3.44056 42.4232 2.51977 42.4454 2.06587 42.4072C2.73315 44.6411 4.97148 44.483 5.45563 44.0422C5.42425 44.3971 6.23342 44.9036 6.91931 44.4976L7.22056 44.3534C7.27369 44.4237 13.6666 50.4016 13.6666 50.4016C13.3729 50.8328 13.2333 51.3621 13.3297 51.9265C13.4814 52.8083 14.2233 53.5393 15.1715 53.7292C15.841 53.8623 16.4704 53.7336 16.9752 53.4412L18.6675 54.9956C18.8177 55.1309 19.0216 55.2152 19.2489 55.1993C19.6629 55.1718 19.9729 54.8399 19.9415 54.459C19.9281 54.2871 19.8393 54.1396 19.7169 54.0275C19.69 53.9982 17.9933 52.4392 17.9933 52.4392C19.3931 51.4682 22.001 50.7838 24.1654 50.7838C24.5455 50.7838 24.7244 50.4653 24.5935 50.1531C23.6128 47.8194 25.7209 46.1286 27.9019 47.5048C28.8532 48.1049 29.8194 49.2871 30.5475 51.2594C26.9694 52.1168 22.4766 54.4792 21.5677 57.0578C21.2176 58.0534 22.3738 59.4106 23.7778 59.6837C23.8026 59.6891 23.8286 59.6844 23.85 59.6708C23.8713 59.6571 23.8862 59.6356 23.8914 59.6109C24.6249 55.7614 28.8079 52.8928 30.9843 52.4057C31.0935 52.6956 31.0579 52.6018 31.1672 52.8906C28.7967 54.0002 26.4978 56.3402 25.8415 59.1225C25.54 60.3965 26.9757 61.5449 28.1608 61.8593C28.2204 61.8748 28.2789 61.834 28.2823 61.7772C28.5075 58.2588 30.0772 55.2707 31.4835 53.9115C31.522 54.1773 31.551 54.4445 31.5703 54.7123C31.5703 54.7123 30.1303 58.6828 30.1303 61.5798C30.1303 62.9276 32.1544 63.8685 32.4532 64C32.8268 63.8685 34.8493 62.9276 34.8493 61.5798C34.8493 58.6826 33.4098 54.7121 33.4098 54.7121C33.4295 54.4442 33.4588 54.1771 33.4977 53.9113C34.9031 55.2711 36.4737 58.2577 36.6981 61.7761C36.7007 61.8041 36.7157 61.8295 36.739 61.8455C36.7624 61.8616 36.7917 61.8666 36.8191 61.8593C38.0057 61.5449 39.44 60.3965 39.1399 59.1225C38.4823 56.3406 36.1845 54.0002 33.8142 52.8906C33.9224 52.6018 33.8866 52.6954 33.9962 52.4055C36.1738 52.8926 40.3552 55.7612 41.0889 59.6107C41.1 59.6618 41.1509 59.6942 41.2025 59.6833C42.6057 59.4104 43.7636 58.0528 43.4115 57.0574C42.5048 54.4787 38.0109 52.1164 34.4322 51.259C35.1615 49.2869 36.128 48.1045 37.0793 47.5044C39.2589 46.1281 41.3672 47.8187 40.3866 50.1527C40.2557 50.4648 40.4332 50.7834 40.8147 50.7834C43.2631 50.7834 46.2794 51.6585 47.473 52.8325C48.2358 53.9652 49.645 54.6897 51.2355 54.5346C53.0426 54.3594 54.5161 53.0159 54.7196 51.3548C54.8974 49.8996 54.1369 48.593 52.9247 47.8809L50.811 49.5262L50.8114 49.5264ZM34.9985 38.9509C35.7195 38.686 36.8499 38.9003 36.8115 39.9312C36.8022 40.1651 37.1331 40.1651 37.1572 39.9263C37.373 38.3826 36.3197 37.9381 35.2173 38.1189C35.0803 37.5881 34.9682 37.1242 34.8406 36.6644C34.7389 36.2923 34.7015 35.5936 35.1363 35.5936C35.3708 35.5936 35.2766 36.2434 35.2544 36.5234C35.2351 36.769 35.3242 36.9177 35.5256 36.9247C35.651 36.9298 35.8078 36.7712 35.9014 36.6659C36.5323 35.9593 36.6788 34.8655 35.9396 34.3379C35.3212 33.895 33.7726 34.2246 33.347 34.8555C33.2826 34.6178 32.9755 34.2254 32.8282 34.0547C32.685 33.8878 32.6478 33.7736 32.8458 33.6273C32.9392 33.5563 33.2216 33.2781 33.2216 32.9911C33.2216 32.8214 33.0884 32.5079 32.6663 32.5079C32.333 32.5079 31.9626 32.7363 31.9626 33.2458C31.9626 33.3591 31.9905 33.4803 32.0642 33.6109C31.8537 33.5765 31.2817 33.5905 30.9879 33.6624L35.0492 44.6984C36.2117 44.1302 37.064 43.2306 37.064 42.265C37.064 41.442 35.84 41.7151 35.2456 42.357C35.0545 41.3136 34.8845 40.3501 34.6985 39.3898C34.6478 39.1249 34.7837 39.0298 34.9985 38.9501V38.9509ZM29.5995 31.7669L30.4708 34.1151C29.7249 34.2874 28.5252 34.8149 28.5252 35.5136C28.5252 36.4439 30.2222 37.0497 31.2031 36.977C31.1545 37.1892 31.2106 37.3783 31.3632 37.5512C31.0071 37.5512 30.3353 37.712 30.1148 37.9426C29.5945 37.4725 28.7806 37.3013 28.3936 37.5874C28.0049 37.8758 27.9933 38.3642 28.3991 38.9163C28.6819 39.2986 28.7881 39.6757 28.4701 40.1185C29.6526 40.1185 29.2171 38.6271 29.6804 38.6271C29.6197 38.9163 29.6567 39.2509 29.7914 39.6221C29.8804 39.8688 29.8804 40.0441 29.7278 40.2814C29.3463 40.8732 28.753 42.2319 28.8332 43.4608C28.4456 43.4587 28.2485 43.3668 28.3851 42.8529C28.4359 42.6619 28.3143 42.5254 28.1531 42.7611C27.9751 43.021 27.8891 43.4651 27.8891 43.6548C27.8891 44.7489 29.2331 44.9693 29.7458 44.7379C31.2294 46.131 34.144 45.7592 35.1196 45.292L29.9885 31.634C29.8837 31.376 29.5074 31.4993 29.5995 31.7673V31.7669ZM28.9309 43.6825C28.8309 43.0073 29.5907 41.8 30.5574 40.6349C30.3516 41.3943 30.4795 42.7024 30.8829 43.1531C30.1818 43.1531 29.349 43.3159 28.9307 43.6825V43.6825H28.9309Z" fill="white"/>
</mask>
<g mask="url(#mask0)">
<rect width="65.0746" height="64" rx="4" fill="#3B4256"/>
</g>
</svg>
