<svg width="48" height="49" viewBox="0 0 48 49" fill="none" xmlns="http://www.w3.org/2000/svg">
<path fill-rule="evenodd" clip-rule="evenodd" d="M32.7619 16.2721C32.0614 15.6664 31.0541 15.6803 30.4762 15.8561C30.8547 15.3978 31.7368 15.0217 31.9964 14.9761C32.1941 15.0493 32.7619 15.6245 32.7619 16.2721ZM35.7859 13.9106C35.2848 11.3097 29.0569 13.0333 25.9204 11.9285C25.8604 12.6868 26.886 13.9017 27.8671 14.3511C26.1902 15.7638 24.6847 18.6098 24.3806 22.0868C24.0778 18.6098 22.5722 15.7638 20.8953 14.3513C21.8762 13.9018 22.9029 12.687 22.8419 11.9289C19.7055 13.0336 13.4774 11.3102 12.9755 13.9111C12.87 14.4618 13.1429 15.3005 13.4376 15.5418C13.4904 15.3673 13.7657 14.7966 14.6339 14.6687C19.0217 14.0253 22.6851 20.5885 19.3782 23.2421C19.3278 23.2829 19.3564 23.3571 19.4244 23.3571H29.3388C29.406 23.3571 29.4346 23.2827 29.3849 23.2423C26.0772 20.5888 29.7406 14.0256 34.1285 14.6691C34.9972 14.7969 35.2719 15.3675 35.3248 15.542C35.6195 15.3006 35.8924 14.462 35.7861 13.9113L35.7859 13.9106ZM36.2576 7.71269C36.1818 7.45883 38.6533 7.45243 38.6533 9.06703C38.6533 10.1488 37.1749 10.6613 37.1749 11.7842C37.1749 12.307 37.714 12.6904 37.8794 12.6904C37.4985 10.888 39.073 11.8313 39.4983 12.1682C38.6533 9.74421 40.5551 9.75937 40.3679 8.64793C40.2376 7.87137 38.5844 8.10585 37.9863 7.71269C36.9246 7.0153 35.6685 4.30104 34.8409 7.0153C36.3839 8.5103 35.486 10.7111 33.527 10.7111C33.527 10.7111 33.5162 11.0337 33.5341 11.0593C35.8706 10.94 36.685 9.14772 36.2576 7.71269V7.71269ZM8.50179 12.1682C8.92693 11.8313 10.5012 10.888 10.1213 12.6904C10.2859 12.6904 10.825 12.307 10.825 11.7842C10.825 10.6613 9.34657 10.1489 9.34657 9.06708C9.34657 7.4525 11.818 7.4589 11.7423 7.71275C11.3155 9.14794 12.1299 10.9402 14.4664 11.0593C14.4837 11.0337 14.4728 10.711 14.4728 10.711C12.5147 10.711 11.6168 8.51036 13.159 7.01521C12.3314 4.30116 11.0753 7.01521 10.0136 7.71259C9.41533 8.10591 7.76209 7.87126 7.632 8.64798C7.44558 9.75975 9.34673 9.74459 8.50196 12.1686L8.50179 12.1682ZM15.2383 16.2721C15.9393 15.6664 16.9468 15.6803 17.5238 15.8561C17.1469 15.3978 16.2632 15.0217 16.0043 14.9761C15.8066 15.0493 15.2381 15.6245 15.2381 16.2721H15.2383ZM25.1427 1.985L24.0001 0.5L22.8571 1.985L23.9998 3.54762L25.1429 1.985H25.1427ZM31.9998 6.22733L31.2379 5.07143L30.4762 6.22733L31.2377 7.35715L32 6.22733H31.9998ZM38.857 35.2415L37.7144 34.0239L36.5714 35.2413L37.7144 36.3096L38.8571 35.2413L38.857 35.2415ZM17.5237 6.22733L16.7616 5.07143L16 6.22733L16.7618 7.35715L17.5238 6.22733H17.5237ZM15.3362 11.1665H18.474C21.1121 11.1665 22.299 9.52989 22.6577 8.11069H25.342C25.7009 9.52989 26.8872 11.1663 29.5261 11.1663H32.6639C32.6639 11.1663 33.2128 10.4137 33.3505 10.0411C33.846 8.70008 33.2128 8.07445 32.2888 8.07445L31.0944 9.16857L29.9002 8.07479C28.9763 8.07479 28.343 8.70008 28.8386 10.0412C28.9019 10.2126 29.0533 10.4645 29.1967 10.686C28.0833 10.5314 26.662 9.76101 26.3504 8.11069C26.3504 8.11069 27.173 6.79002 27.3797 6.25549C28.1214 4.33325 27.174 3.54762 25.7885 3.54762L23.9998 5.67254L22.2111 3.54762C20.8256 3.54762 19.8784 4.33325 20.6209 6.25549C20.8264 6.79002 21.65 8.11086 21.65 8.11086C21.3376 9.76101 19.9166 10.5314 18.8032 10.6862C18.9473 10.4643 19.098 10.2126 19.161 10.0411C19.6557 8.70008 19.0242 8.07462 18.0996 8.07462L16.9051 9.16874L15.7106 8.07496C14.7862 8.07496 14.1546 8.70025 14.6493 10.0414C14.787 10.4139 15.3367 11.1667 15.3367 11.1667L15.3362 11.1665ZM47.4952 20.475C46.9023 20.7758 43.4242 22.4084 38.9689 21.8045C39.0151 21.5916 39.0543 21.3771 39.0864 21.1616C42.0516 20.8062 44.462 20.3021 45.9981 19.446C47.749 18.4693 48.5147 16.1379 47.6309 14.4036C47.608 14.3599 47.5445 14.352 47.5129 14.3889C47.0284 14.9476 43.9833 18.2672 39.1854 19.2992C39.1732 19.0501 39.1505 18.8016 39.1174 18.5544C41.4477 17.2302 43.7225 15.7044 44.8062 14.3092C46.4435 12.1997 46.2929 9.50891 44.7347 8.13704C44.7185 8.12308 44.6971 8.1168 44.676 8.11979C44.6549 8.12278 44.636 8.13475 44.6243 8.15265C44.1314 8.96775 39.5167 16.4417 34.4503 19.6686C34.3885 19.7082 34.3262 19.747 34.2634 19.785C34.1181 19.8734 34.1022 20.0627 34.2257 20.175C34.8101 20.7054 35.173 21.4436 35.173 22.2633C35.173 23.6886 34.0769 24.8738 32.6279 25.131C31.8916 25.274 30.8289 25.2324 29.8078 24.894C29.7618 24.8792 29.7143 24.9096 29.7143 24.9558V29.4691C29.7143 29.5418 29.8245 29.5598 29.8504 29.4905C30.4713 27.8425 32.3291 27.4925 33.1417 27.4925C33.4341 29.2535 33.9564 30.7122 34.6348 31.4973C35.7398 32.7731 37.544 32.7552 38.3263 31.8732C38.3391 31.8585 38.3446 31.8388 38.3412 31.8197C38.3377 31.8005 38.3258 31.7839 38.3087 31.7746C37.8491 31.51 35.2191 29.8918 34.6927 27.2402C34.8993 27.17 35.1013 27.0867 35.2975 26.9909C36.1465 28.3988 37.3822 29.6527 38.3769 30.1317C40.048 30.9348 41.5777 30.5442 42.2561 29.3684C42.2807 29.327 42.2506 29.2754 42.2007 29.2708C41.1671 29.1881 37.995 28.277 36.6444 26.0575C36.8006 25.9153 36.9498 25.7656 37.0914 25.6089C38.505 26.6872 40.5031 27.6404 41.9337 27.835C43.6078 28.0631 45.5045 27.5277 45.5504 25.577C45.5512 25.538 45.5163 25.506 45.475 25.5083C44.8797 25.5445 40.9398 25.7162 38.1323 24.1013C38.2298 23.9154 38.3208 23.7262 38.405 23.534C38.405 23.534 42.6471 24.5389 44.6571 24.2061C46.6545 23.8758 47.8244 22.3836 47.5986 20.5271C47.5921 20.4811 47.5383 20.4537 47.4953 20.4755L47.4952 20.475ZM9.59441 23.5331C9.67883 23.7254 9.77002 23.9147 9.86779 24.1005C7.06099 25.7147 3.12263 25.5443 2.5247 25.5076C2.48271 25.5053 2.44762 25.5389 2.4486 25.5772C2.49534 27.5272 4.39146 28.0625 6.06554 27.8344C7.49558 27.6398 9.4947 26.6866 10.9079 25.6084C11.0497 25.7649 11.1989 25.9146 11.3549 26.057C10.0036 28.2765 6.83189 29.1878 5.79839 29.2704C5.74837 29.2754 5.71918 29.3268 5.74296 29.3682C6.42141 30.5441 7.95117 30.9347 9.62311 30.1316C10.6169 29.6525 11.8526 28.3986 12.7013 26.9907C12.8977 27.0862 13.0998 27.1694 13.3065 27.24C12.78 29.8916 10.15 31.5096 9.69035 31.7747C9.67335 31.7841 9.6615 31.8007 9.65809 31.8198C9.65469 31.8389 9.66009 31.8586 9.6728 31.8733C10.4551 32.7552 12.26 32.7731 13.365 31.4973C14.0435 30.712 14.5651 29.2533 14.8574 27.4922C15.6708 27.4922 17.5281 27.8423 18.1488 29.4902C18.1755 29.5597 18.2857 29.5416 18.2857 29.4688V24.9554C18.2857 24.9094 18.2373 24.8789 18.1914 24.8937C17.1705 25.2322 16.1075 25.2733 15.372 25.1303C13.9223 24.8734 12.826 23.6882 12.826 22.263C12.826 21.4436 13.19 20.7046 13.7732 20.1742C13.8978 20.0625 13.8809 19.8731 13.7368 19.7847C13.6734 19.7468 13.6106 19.7081 13.5482 19.6685C8.48465 16.4433 3.87242 8.97409 3.37518 8.15369C3.36337 8.13534 3.34422 8.123 3.32266 8.11985C3.30109 8.1167 3.27922 8.12305 3.26268 8.13726C1.70668 9.51002 1.55548 12.1998 3.19298 14.3088C4.27667 15.7041 6.55162 17.23 8.88119 18.5543C8.84836 18.8014 8.82593 19.0498 8.81395 19.2988C4.01985 18.2677 0.9769 14.9535 0.487863 14.3908C0.455064 14.3524 0.390285 14.3601 0.368146 14.404C-0.514154 16.1394 0.251709 18.469 2.00089 19.4457C3.53721 20.3019 5.94779 20.806 8.913 21.1614C8.94504 21.377 8.98415 21.5914 9.03026 21.8043C4.5794 22.4075 1.10301 20.7785 0.505411 20.4755C0.461132 20.4528 0.407341 20.4809 0.401765 20.5277C0.176598 22.3841 1.34573 23.8749 3.3432 24.2054C5.35265 24.5382 9.59474 23.5332 9.59474 23.5332L9.59441 23.5331ZM37.4792 37.6449L35.9208 36.411C35.2988 36.7837 34.8418 37.3753 34.6643 38.069C33.7268 38.2009 31.1714 37.6297 31.4199 37.2509C34.2207 33.2866 32.0785 30.9262 29.5037 31.0576V33.7197C29.5037 34.5749 28.7622 35.2678 27.8487 35.2678H26.0707C24.7953 35.2678 23.965 36.5579 23.965 36.5579C23.965 36.5579 23.1347 35.2677 21.8594 35.2677H20.0815C19.1672 35.2677 18.4274 34.5747 18.4274 33.7197V31.0576C15.8526 30.9262 13.7087 33.2864 16.5103 37.2507C16.7567 37.6257 14.1298 38.226 12.8978 38.0743C12.5731 37.7355 12.1048 37.5219 11.5806 37.5219C11.3576 37.522 11.1365 37.562 10.9275 37.64C10.9275 37.64 6.08586 33.0269 5.99724 32.9818L6.03692 32.8886C6.31303 32.3695 5.89093 31.8038 5.62408 31.8438C5.93408 31.4694 5.94847 29.8314 4.22867 29.4524C4.27909 29.7815 4.30472 30.453 4.30472 30.453C4.30472 30.453 2.97742 29.7309 2.3108 30.3542C1.72519 31.0518 2.5378 32.3174 2.5378 32.3174C2.5378 32.3174 1.85861 32.3341 1.52381 32.3055C2.01601 33.9809 3.66703 33.8623 4.02415 33.5317C4.001 33.7979 4.59786 34.1777 5.10378 33.8732L5.32599 33.7651C5.36517 33.8178 10.0807 38.3012 10.0807 38.3012C9.86407 38.6247 9.76106 39.0216 9.83216 39.4449C9.94409 40.1063 10.4913 40.6545 11.1907 40.7969C11.6846 40.8967 12.1488 40.8002 12.5211 40.5809L13.7694 41.7468C13.8802 41.8482 14.0306 41.9115 14.1983 41.8995C14.5037 41.8789 14.7323 41.63 14.7092 41.3443C14.6992 41.2153 14.6338 41.1047 14.5435 41.0207C14.5237 40.9987 13.2721 39.8294 13.2721 39.8294C14.3046 39.1012 16.2283 38.5879 17.8247 38.5879C18.1051 38.5879 18.2371 38.349 18.1405 38.1149C17.4172 36.3646 18.9721 35.0965 20.5808 36.1287C21.2825 36.5787 21.9953 37.4654 22.5323 38.9446C19.893 39.5877 16.5791 41.3594 15.9087 43.2934C15.6504 44.0401 16.5032 45.058 17.5389 45.2628C17.5572 45.2669 17.5763 45.2634 17.5921 45.2531C17.6078 45.2429 17.6188 45.2267 17.6227 45.2083C18.1636 42.3211 21.2491 40.1697 22.8545 39.8043C22.935 40.0217 22.9087 39.9514 22.9894 40.168C21.2408 41.0002 19.5452 42.7552 19.0611 44.8419C18.8387 45.7974 19.8977 46.6587 20.7718 46.8945C20.8158 46.9061 20.8589 46.8755 20.8614 46.8329C21.0276 44.1942 22.1854 41.9531 23.2227 40.9337C23.2511 41.133 23.2725 41.3334 23.2867 41.5343C23.2867 41.5343 22.2246 44.5121 22.2246 46.6849C22.2246 47.6958 23.7175 48.4014 23.9379 48.5C24.2135 48.4014 25.7053 47.6958 25.7053 46.6849C25.7053 44.512 24.6436 41.5341 24.6436 41.5341C24.6581 41.3332 24.6797 41.1329 24.7084 40.9335C25.745 41.9534 26.9035 44.1933 27.069 46.8321C27.071 46.8531 27.082 46.8721 27.0992 46.8842C27.1165 46.8962 27.1381 46.9 27.1583 46.8945C28.0336 46.6587 29.0915 45.7974 28.8702 44.8419C28.3851 42.7555 26.6902 41.0002 24.9418 40.168C25.0217 39.9514 24.9952 40.0216 25.0761 39.8041C26.6823 40.1695 29.7666 42.3209 30.3077 45.2081C30.316 45.2464 30.3535 45.2707 30.3916 45.2625C31.4265 45.0578 32.2807 44.0396 32.0209 43.2931C31.3521 41.3591 28.0374 39.5873 25.3977 38.9443C25.9357 37.4652 26.6486 36.5784 27.3502 36.1283C28.958 35.0961 30.5131 36.3641 29.7897 38.1146C29.6932 38.3487 29.8241 38.5876 30.1055 38.5876C31.9115 38.5876 34.1364 39.2439 35.0168 40.1244C35.5794 40.9739 36.6189 41.5173 37.7921 41.401C39.125 41.2696 40.2119 40.262 40.362 39.0162C40.4931 37.9247 39.9321 36.9448 39.038 36.4107L37.4789 37.6447L37.4792 37.6449ZM25.8154 29.7132C26.3473 29.5145 27.181 29.6753 27.1527 30.4484C27.1459 30.6239 27.3899 30.6239 27.4077 30.4448C27.5669 29.287 26.79 28.9536 25.9768 29.0892C25.8757 28.6911 25.7931 28.3431 25.699 27.9984C25.6239 27.7193 25.5963 27.1952 25.9171 27.1952C26.09 27.1952 26.0205 27.6826 26.0042 27.8926C25.9899 28.0768 26.0557 28.1883 26.2042 28.1936C26.2967 28.1974 26.4124 28.0784 26.4814 27.9995C26.9468 27.4695 27.0548 26.6491 26.5096 26.2535C26.0534 25.9213 24.9111 26.1685 24.5972 26.6416C24.5497 26.4634 24.3232 26.1691 24.2145 26.041C24.1089 25.9159 24.0815 25.8302 24.2275 25.7205C24.2964 25.6672 24.5047 25.4586 24.5047 25.2433C24.5047 25.1161 24.4065 24.881 24.0951 24.881C23.8493 24.881 23.5761 25.0523 23.5761 25.4344C23.5761 25.5194 23.5967 25.6103 23.651 25.7082C23.4958 25.6824 23.0738 25.6929 22.8571 25.7468L25.8528 34.0238C26.7103 33.5977 27.3389 32.9229 27.3389 32.1987C27.3389 31.5816 26.4361 31.7863 25.9977 32.2678C25.8567 31.4852 25.7313 30.7626 25.5941 30.0424C25.5567 29.8437 25.657 29.7724 25.8154 29.7126V29.7132ZM21.833 24.3252L22.4757 26.0863C21.9255 26.2155 21.0406 26.6111 21.0406 27.1352C21.0406 27.8329 22.2923 28.2872 23.0159 28.2327C22.98 28.3919 23.0214 28.5337 23.1339 28.6634C22.8713 28.6634 22.3758 28.784 22.2131 28.9569C21.8293 28.6044 21.229 28.476 20.9436 28.6905C20.6568 28.9068 20.6482 29.2731 20.9476 29.6872C21.1562 29.9739 21.2345 30.2567 21 30.5888C21.8722 30.5888 21.551 29.4703 21.8927 29.4703C21.8479 29.6872 21.8752 29.9381 21.9745 30.2165C22.0402 30.4016 22.0402 30.533 21.9276 30.711C21.6462 31.1548 21.2086 32.1739 21.2678 33.0956C20.9819 33.094 20.8365 33.0251 20.9372 32.6397C20.9748 32.4964 20.885 32.394 20.7661 32.5708C20.6348 32.7657 20.5714 33.0988 20.5714 33.2411C20.5714 34.0617 21.5628 34.2269 21.9409 34.0534C23.0353 35.0982 25.1851 34.8194 25.9048 34.4689L22.1199 24.2255C22.0426 24.032 21.7651 24.1245 21.833 24.3255V24.3252ZM21.3399 33.2619C21.2661 32.7555 21.8266 31.85 22.5396 30.9762C22.3878 31.5457 22.4821 32.5269 22.7797 32.8649C22.2625 32.8649 21.6483 32.987 21.3397 33.2619V33.2619H21.3399Z" fill="#FEFEFE"/>
<mask id="mask0" mask-type="alpha" maskUnits="userSpaceOnUse" x="0" y="0" width="48" height="49">
<path fill-rule="evenodd" clip-rule="evenodd" d="M32.7619 16.2721C32.0614 15.6664 31.0541 15.6803 30.4762 15.8561C30.8547 15.3978 31.7368 15.0217 31.9964 14.9761C32.1941 15.0493 32.7619 15.6245 32.7619 16.2721ZM35.7859 13.9106C35.2848 11.3097 29.0569 13.0333 25.9204 11.9285C25.8604 12.6868 26.886 13.9017 27.8671 14.3511C26.1902 15.7638 24.6847 18.6098 24.3806 22.0868C24.0778 18.6098 22.5722 15.7638 20.8953 14.3513C21.8762 13.9018 22.9029 12.687 22.8419 11.9289C19.7055 13.0336 13.4774 11.3102 12.9755 13.9111C12.87 14.4618 13.1429 15.3005 13.4376 15.5418C13.4904 15.3673 13.7657 14.7966 14.6339 14.6687C19.0217 14.0253 22.6851 20.5885 19.3782 23.2421C19.3278 23.2829 19.3564 23.3571 19.4244 23.3571H29.3388C29.406 23.3571 29.4346 23.2827 29.3849 23.2423C26.0772 20.5888 29.7406 14.0256 34.1285 14.6691C34.9972 14.7969 35.2719 15.3675 35.3248 15.542C35.6195 15.3006 35.8924 14.462 35.7861 13.9113L35.7859 13.9106ZM36.2576 7.71269C36.1818 7.45883 38.6533 7.45243 38.6533 9.06703C38.6533 10.1488 37.1749 10.6613 37.1749 11.7842C37.1749 12.307 37.714 12.6904 37.8794 12.6904C37.4985 10.888 39.073 11.8313 39.4983 12.1682C38.6533 9.74421 40.5551 9.75937 40.3679 8.64793C40.2376 7.87137 38.5844 8.10585 37.9863 7.71269C36.9246 7.0153 35.6685 4.30104 34.8409 7.0153C36.3839 8.5103 35.486 10.7111 33.527 10.7111C33.527 10.7111 33.5162 11.0337 33.5341 11.0593C35.8706 10.94 36.685 9.14772 36.2576 7.71269V7.71269ZM8.50179 12.1682C8.92693 11.8313 10.5012 10.888 10.1213 12.6904C10.2859 12.6904 10.825 12.307 10.825 11.7842C10.825 10.6613 9.34657 10.1489 9.34657 9.06708C9.34657 7.4525 11.818 7.4589 11.7423 7.71275C11.3155 9.14794 12.1299 10.9402 14.4664 11.0593C14.4837 11.0337 14.4728 10.711 14.4728 10.711C12.5147 10.711 11.6168 8.51036 13.159 7.01521C12.3314 4.30116 11.0753 7.01521 10.0136 7.71259C9.41533 8.10591 7.76209 7.87126 7.632 8.64798C7.44558 9.75975 9.34673 9.74459 8.50196 12.1686L8.50179 12.1682ZM15.2383 16.2721C15.9393 15.6664 16.9468 15.6803 17.5238 15.8561C17.1469 15.3978 16.2632 15.0217 16.0043 14.9761C15.8066 15.0493 15.2381 15.6245 15.2381 16.2721H15.2383ZM25.1427 1.985L24.0001 0.5L22.8571 1.985L23.9998 3.54762L25.1429 1.985H25.1427ZM31.9998 6.22733L31.2379 5.07143L30.4762 6.22733L31.2377 7.35715L32 6.22733H31.9998ZM38.857 35.2415L37.7144 34.0239L36.5714 35.2413L37.7144 36.3096L38.8571 35.2413L38.857 35.2415ZM17.5237 6.22733L16.7616 5.07143L16 6.22733L16.7618 7.35715L17.5238 6.22733H17.5237ZM15.3362 11.1665H18.474C21.1121 11.1665 22.299 9.52989 22.6577 8.11069H25.342C25.7009 9.52989 26.8872 11.1663 29.5261 11.1663H32.6639C32.6639 11.1663 33.2128 10.4137 33.3505 10.0411C33.846 8.70008 33.2128 8.07445 32.2888 8.07445L31.0944 9.16857L29.9002 8.07479C28.9763 8.07479 28.343 8.70008 28.8386 10.0412C28.9019 10.2126 29.0533 10.4645 29.1967 10.686C28.0833 10.5314 26.662 9.76101 26.3504 8.11069C26.3504 8.11069 27.173 6.79002 27.3797 6.25549C28.1214 4.33325 27.174 3.54762 25.7885 3.54762L23.9998 5.67254L22.2111 3.54762C20.8256 3.54762 19.8784 4.33325 20.6209 6.25549C20.8264 6.79002 21.65 8.11086 21.65 8.11086C21.3376 9.76101 19.9166 10.5314 18.8032 10.6862C18.9473 10.4643 19.098 10.2126 19.161 10.0411C19.6557 8.70008 19.0242 8.07462 18.0996 8.07462L16.9051 9.16874L15.7106 8.07496C14.7862 8.07496 14.1546 8.70025 14.6493 10.0414C14.787 10.4139 15.3367 11.1667 15.3367 11.1667L15.3362 11.1665ZM47.4952 20.475C46.9023 20.7758 43.4242 22.4084 38.9689 21.8045C39.0151 21.5916 39.0543 21.3771 39.0864 21.1616C42.0516 20.8062 44.462 20.3021 45.9981 19.446C47.749 18.4693 48.5147 16.1379 47.6309 14.4036C47.608 14.3599 47.5445 14.352 47.5129 14.3889C47.0284 14.9476 43.9833 18.2672 39.1854 19.2992C39.1732 19.0501 39.1505 18.8016 39.1174 18.5544C41.4477 17.2302 43.7225 15.7044 44.8062 14.3092C46.4435 12.1997 46.2929 9.50891 44.7347 8.13704C44.7185 8.12308 44.6971 8.1168 44.676 8.11979C44.6549 8.12278 44.636 8.13475 44.6243 8.15265C44.1314 8.96775 39.5167 16.4417 34.4503 19.6686C34.3885 19.7082 34.3262 19.747 34.2634 19.785C34.1181 19.8734 34.1022 20.0627 34.2257 20.175C34.8101 20.7054 35.173 21.4436 35.173 22.2633C35.173 23.6886 34.0769 24.8738 32.6279 25.131C31.8916 25.274 30.8289 25.2324 29.8078 24.894C29.7618 24.8792 29.7143 24.9096 29.7143 24.9558V29.4691C29.7143 29.5418 29.8245 29.5598 29.8504 29.4905C30.4713 27.8425 32.3291 27.4925 33.1417 27.4925C33.4341 29.2535 33.9564 30.7122 34.6348 31.4973C35.7398 32.7731 37.544 32.7552 38.3263 31.8732C38.3391 31.8585 38.3446 31.8388 38.3412 31.8197C38.3377 31.8005 38.3258 31.7839 38.3087 31.7746C37.8491 31.51 35.2191 29.8918 34.6927 27.2402C34.8993 27.17 35.1013 27.0867 35.2975 26.9909C36.1465 28.3988 37.3822 29.6527 38.3769 30.1317C40.048 30.9348 41.5777 30.5442 42.2561 29.3684C42.2807 29.327 42.2506 29.2754 42.2007 29.2708C41.1671 29.1881 37.995 28.277 36.6444 26.0575C36.8006 25.9153 36.9498 25.7656 37.0914 25.6089C38.505 26.6872 40.5031 27.6404 41.9337 27.835C43.6078 28.0631 45.5045 27.5277 45.5504 25.577C45.5512 25.538 45.5163 25.506 45.475 25.5083C44.8797 25.5445 40.9398 25.7162 38.1323 24.1013C38.2298 23.9154 38.3208 23.7262 38.405 23.534C38.405 23.534 42.6471 24.5389 44.6571 24.2061C46.6545 23.8758 47.8244 22.3836 47.5986 20.5271C47.5921 20.4811 47.5383 20.4537 47.4953 20.4755L47.4952 20.475ZM9.59441 23.5331C9.67883 23.7254 9.77002 23.9147 9.86779 24.1005C7.06099 25.7147 3.12263 25.5443 2.5247 25.5076C2.48271 25.5053 2.44762 25.5389 2.4486 25.5772C2.49534 27.5272 4.39146 28.0625 6.06554 27.8344C7.49558 27.6398 9.4947 26.6866 10.9079 25.6084C11.0497 25.7649 11.1989 25.9146 11.3549 26.057C10.0036 28.2765 6.83189 29.1878 5.79839 29.2704C5.74837 29.2754 5.71918 29.3268 5.74296 29.3682C6.42141 30.5441 7.95117 30.9347 9.62311 30.1316C10.6169 29.6525 11.8526 28.3986 12.7013 26.9907C12.8977 27.0862 13.0998 27.1694 13.3065 27.24C12.78 29.8916 10.15 31.5096 9.69035 31.7747C9.67335 31.7841 9.6615 31.8007 9.65809 31.8198C9.65469 31.8389 9.66009 31.8586 9.6728 31.8733C10.4551 32.7552 12.26 32.7731 13.365 31.4973C14.0435 30.712 14.5651 29.2533 14.8574 27.4922C15.6708 27.4922 17.5281 27.8423 18.1488 29.4902C18.1755 29.5597 18.2857 29.5416 18.2857 29.4688V24.9554C18.2857 24.9094 18.2373 24.8789 18.1914 24.8937C17.1705 25.2322 16.1075 25.2733 15.372 25.1303C13.9223 24.8734 12.826 23.6882 12.826 22.263C12.826 21.4436 13.19 20.7046 13.7732 20.1742C13.8978 20.0625 13.8809 19.8731 13.7368 19.7847C13.6734 19.7468 13.6106 19.7081 13.5482 19.6685C8.48465 16.4433 3.87242 8.97409 3.37518 8.15369C3.36337 8.13534 3.34422 8.123 3.32266 8.11985C3.30109 8.1167 3.27922 8.12305 3.26268 8.13726C1.70668 9.51002 1.55548 12.1998 3.19298 14.3088C4.27667 15.7041 6.55162 17.23 8.88119 18.5543C8.84836 18.8014 8.82593 19.0498 8.81395 19.2988C4.01985 18.2677 0.9769 14.9535 0.487863 14.3908C0.455064 14.3524 0.390285 14.3601 0.368146 14.404C-0.514154 16.1394 0.251709 18.469 2.00089 19.4457C3.53721 20.3019 5.94779 20.806 8.913 21.1614C8.94504 21.377 8.98415 21.5914 9.03026 21.8043C4.5794 22.4075 1.10301 20.7785 0.505411 20.4755C0.461132 20.4528 0.407341 20.4809 0.401765 20.5277C0.176598 22.3841 1.34573 23.8749 3.3432 24.2054C5.35265 24.5382 9.59474 23.5332 9.59474 23.5332L9.59441 23.5331ZM37.4792 37.6449L35.9208 36.411C35.2988 36.7837 34.8418 37.3753 34.6643 38.069C33.7268 38.2009 31.1714 37.6297 31.4199 37.2509C34.2207 33.2866 32.0785 30.9262 29.5037 31.0576V33.7197C29.5037 34.5749 28.7622 35.2678 27.8487 35.2678H26.0707C24.7953 35.2678 23.965 36.5579 23.965 36.5579C23.965 36.5579 23.1347 35.2677 21.8594 35.2677H20.0815C19.1672 35.2677 18.4274 34.5747 18.4274 33.7197V31.0576C15.8526 30.9262 13.7087 33.2864 16.5103 37.2507C16.7567 37.6257 14.1298 38.226 12.8978 38.0743C12.5731 37.7355 12.1048 37.5219 11.5806 37.5219C11.3576 37.522 11.1365 37.562 10.9275 37.64C10.9275 37.64 6.08586 33.0269 5.99724 32.9818L6.03692 32.8886C6.31303 32.3695 5.89093 31.8038 5.62408 31.8438C5.93408 31.4694 5.94847 29.8314 4.22867 29.4524C4.27909 29.7815 4.30472 30.453 4.30472 30.453C4.30472 30.453 2.97742 29.7309 2.3108 30.3542C1.72519 31.0518 2.5378 32.3174 2.5378 32.3174C2.5378 32.3174 1.85861 32.3341 1.52381 32.3055C2.01601 33.9809 3.66703 33.8623 4.02415 33.5317C4.001 33.7979 4.59786 34.1777 5.10378 33.8732L5.32599 33.7651C5.36517 33.8178 10.0807 38.3012 10.0807 38.3012C9.86407 38.6247 9.76106 39.0216 9.83216 39.4449C9.94409 40.1063 10.4913 40.6545 11.1907 40.7969C11.6846 40.8967 12.1488 40.8002 12.5211 40.5809L13.7694 41.7468C13.8802 41.8482 14.0306 41.9115 14.1983 41.8995C14.5037 41.8789 14.7323 41.63 14.7092 41.3443C14.6992 41.2153 14.6338 41.1047 14.5435 41.0207C14.5237 40.9987 13.2721 39.8294 13.2721 39.8294C14.3046 39.1012 16.2283 38.5879 17.8247 38.5879C18.1051 38.5879 18.2371 38.349 18.1405 38.1149C17.4172 36.3646 18.9721 35.0965 20.5808 36.1287C21.2825 36.5787 21.9953 37.4654 22.5323 38.9446C19.893 39.5877 16.5791 41.3594 15.9087 43.2934C15.6504 44.0401 16.5032 45.058 17.5389 45.2628C17.5572 45.2669 17.5763 45.2634 17.5921 45.2531C17.6078 45.2429 17.6188 45.2267 17.6227 45.2083C18.1636 42.3211 21.2491 40.1697 22.8545 39.8043C22.935 40.0217 22.9087 39.9514 22.9894 40.168C21.2408 41.0002 19.5452 42.7552 19.0611 44.8419C18.8387 45.7974 19.8977 46.6587 20.7718 46.8945C20.8158 46.9061 20.8589 46.8755 20.8614 46.8329C21.0276 44.1942 22.1854 41.9531 23.2227 40.9337C23.2511 41.133 23.2725 41.3334 23.2867 41.5343C23.2867 41.5343 22.2246 44.5121 22.2246 46.6849C22.2246 47.6958 23.7175 48.4014 23.9379 48.5C24.2135 48.4014 25.7053 47.6958 25.7053 46.6849C25.7053 44.512 24.6436 41.5341 24.6436 41.5341C24.6581 41.3332 24.6797 41.1329 24.7084 40.9335C25.745 41.9534 26.9035 44.1933 27.069 46.8321C27.071 46.8531 27.082 46.8721 27.0992 46.8842C27.1165 46.8962 27.1381 46.9 27.1583 46.8945C28.0336 46.6587 29.0915 45.7974 28.8702 44.8419C28.3851 42.7555 26.6902 41.0002 24.9418 40.168C25.0217 39.9514 24.9952 40.0216 25.0761 39.8041C26.6823 40.1695 29.7666 42.3209 30.3077 45.2081C30.316 45.2464 30.3535 45.2707 30.3916 45.2625C31.4265 45.0578 32.2807 44.0396 32.0209 43.2931C31.3521 41.3591 28.0374 39.5873 25.3977 38.9443C25.9357 37.4652 26.6486 36.5784 27.3502 36.1283C28.958 35.0961 30.5131 36.3641 29.7897 38.1146C29.6932 38.3487 29.8241 38.5876 30.1055 38.5876C31.9115 38.5876 34.1364 39.2439 35.0168 40.1244C35.5794 40.9739 36.6189 41.5173 37.7921 41.401C39.125 41.2696 40.2119 40.262 40.362 39.0162C40.4931 37.9247 39.9321 36.9448 39.038 36.4107L37.4789 37.6447L37.4792 37.6449ZM25.8154 29.7132C26.3473 29.5145 27.181 29.6753 27.1527 30.4484C27.1459 30.6239 27.3899 30.6239 27.4077 30.4448C27.5669 29.287 26.79 28.9536 25.9768 29.0892C25.8757 28.6911 25.7931 28.3431 25.699 27.9984C25.6239 27.7193 25.5963 27.1952 25.9171 27.1952C26.09 27.1952 26.0205 27.6826 26.0042 27.8926C25.9899 28.0768 26.0557 28.1883 26.2042 28.1936C26.2967 28.1974 26.4124 28.0784 26.4814 27.9995C26.9468 27.4695 27.0548 26.6491 26.5096 26.2535C26.0534 25.9213 24.9111 26.1685 24.5972 26.6416C24.5497 26.4634 24.3232 26.1691 24.2145 26.041C24.1089 25.9159 24.0815 25.8302 24.2275 25.7205C24.2964 25.6672 24.5047 25.4586 24.5047 25.2433C24.5047 25.1161 24.4065 24.881 24.0951 24.881C23.8493 24.881 23.5761 25.0523 23.5761 25.4344C23.5761 25.5194 23.5967 25.6103 23.651 25.7082C23.4958 25.6824 23.0738 25.6929 22.8571 25.7468L25.8528 34.0238C26.7103 33.5977 27.3389 32.9229 27.3389 32.1987C27.3389 31.5816 26.4361 31.7863 25.9977 32.2678C25.8567 31.4852 25.7313 30.7626 25.5941 30.0424C25.5567 29.8437 25.657 29.7724 25.8154 29.7126V29.7132ZM21.833 24.3252L22.4757 26.0863C21.9255 26.2155 21.0406 26.6111 21.0406 27.1352C21.0406 27.8329 22.2923 28.2872 23.0159 28.2327C22.98 28.3919 23.0214 28.5337 23.1339 28.6634C22.8713 28.6634 22.3758 28.784 22.2131 28.9569C21.8293 28.6044 21.229 28.476 20.9436 28.6905C20.6568 28.9068 20.6482 29.2731 20.9476 29.6872C21.1562 29.9739 21.2345 30.2567 21 30.5888C21.8722 30.5888 21.551 29.4703 21.8927 29.4703C21.8479 29.6872 21.8752 29.9381 21.9745 30.2165C22.0402 30.4016 22.0402 30.533 21.9276 30.711C21.6462 31.1548 21.2086 32.1739 21.2678 33.0956C20.9819 33.094 20.8365 33.0251 20.9372 32.6397C20.9748 32.4964 20.885 32.394 20.7661 32.5708C20.6348 32.7657 20.5714 33.0988 20.5714 33.2411C20.5714 34.0617 21.5628 34.2269 21.9409 34.0534C23.0353 35.0982 25.1851 34.8194 25.9048 34.4689L22.1199 24.2255C22.0426 24.032 21.7651 24.1245 21.833 24.3255V24.3252ZM21.3399 33.2619C21.2661 32.7555 21.8266 31.85 22.5396 30.9762C22.3878 31.5457 22.4821 32.5269 22.7797 32.8649C22.2625 32.8649 21.6483 32.987 21.3397 33.2619V33.2619H21.3399Z" fill="white"/>
</mask>
<g mask="url(#mask0)">
</g>
</svg>
