<svg width="24" height="25" viewBox="0 0 24 25" fill="none" xmlns="http://www.w3.org/2000/svg">
<path fill-rule="evenodd" clip-rule="evenodd" d="M14.3147 23.9836H9.43724V12.4822H7V8.51918H9.43724V6.13992C9.43724 2.90708 10.8127 0.983643 14.723 0.983643H17.9776V4.94811H15.9435C14.4213 4.94811 14.3207 5.50191 14.3207 6.53549L14.314 8.51918H18L17.5686 12.4822H14.314V23.9836H14.3147Z" fill="white"/>
<mask id="mask0" mask-type="alpha" maskUnits="userSpaceOnUse" x="7" y="0" width="11" height="24">
<path fill-rule="evenodd" clip-rule="evenodd" d="M14.3147 23.9836H9.43724V12.4822H7V8.51918H9.43724V6.13992C9.43724 2.90708 10.8127 0.983643 14.723 0.983643H17.9776V4.94811H15.9435C14.4213 4.94811 14.3207 5.50191 14.3207 6.53549L14.314 8.51918H18L17.5686 12.4822H14.314V23.9836H14.3147Z" fill="white"/>
</mask>
<g mask="url(#mask0)">
<rect y="0.983643" width="24" height="24" rx="4" fill="#C7CCD1"/>
</g>
</svg>
