<svg width="72" height="78" viewBox="0 0 72 78" fill="none" xmlns="http://www.w3.org/2000/svg">
<g opacity="0.192595" filter="url(#filter0_d)">
<path d="M60.9978 13.6143L61.0021 13.6176C62.2826 14.5726 63.5648 16.1586 64.5792 17.9749C65.5916 19.7876 66.2846 21.7353 66.4639 23.3655C66.4641 23.3671 66.4642 23.3687 66.4644 23.3702L66.4649 23.3755L66.4692 23.4199C66.4731 23.4595 66.4787 23.519 66.486 23.5974C66.5006 23.754 66.5215 23.9858 66.5466 24.2843C66.5969 24.8812 66.664 25.7442 66.7312 26.8045C66.8657 28.9262 67 31.8324 67 34.9746C67 38.1169 66.8657 41.0231 66.7312 43.1448C66.664 44.2051 66.5969 45.0681 66.5466 45.665C66.5215 45.9635 66.5006 46.1953 66.486 46.3519C66.4787 46.4303 66.4731 46.4898 66.4692 46.5294L66.4649 46.5738L66.4644 46.579C66.4642 46.5806 66.4641 46.5822 66.4639 46.5837C66.2846 48.2139 65.5916 50.1617 64.5792 51.9744C63.5648 53.7907 62.2826 55.3766 61.0022 56.3317C61.0022 56.3317 61.0021 56.3317 61.0021 56.3317L61.0017 56.332L60.9997 56.3335L60.9912 56.3399L60.9557 56.3661C60.9241 56.3895 60.8765 56.4247 60.8138 56.4706C60.6885 56.5627 60.5027 56.6982 60.2629 56.8712C59.7831 57.2171 59.0871 57.7123 58.2258 58.3069C56.502 59.4968 54.1203 61.0817 51.485 62.6651C48.8534 64.2462 46.3407 65.578 44.4847 66.5149C43.5574 66.9831 42.7954 67.352 42.2663 67.6033C42.0018 67.7289 41.7956 67.8251 41.6562 67.8897C41.5864 67.922 41.5334 67.9463 41.4981 67.9624L41.4587 67.9804L41.4492 67.9847L41.447 67.9857L41.4466 67.9859L41.4462 67.9861C39.9867 68.6466 38.0075 69 35.9815 69C33.9548 69 31.9907 68.6463 30.5591 67.9885L30.5586 67.9883L30.5489 67.9838L30.5092 67.9652L30.4744 67.949C30.4419 67.9337 30.4005 67.9143 30.3506 67.8908C30.2107 67.8248 30.0041 67.7266 29.7391 67.5987C29.2092 67.3431 28.4462 66.969 27.5177 66.4971C25.66 65.553 23.1448 64.22 20.5103 62.6623C17.8529 61.0803 15.4733 59.4967 13.7572 58.3078C12.8995 57.7137 12.2087 57.2189 11.7333 56.8734C11.4956 56.7007 11.3118 56.5653 11.1879 56.4734C11.126 56.4275 11.0791 56.3925 11.0479 56.3692L11.013 56.3431L11.0046 56.3367L11.0027 56.3353L11.0023 56.335L11.0023 56.335L10.9979 56.3317C9.71742 55.3767 8.43521 53.7907 7.42075 51.9744C6.40831 50.1616 5.71532 48.2138 5.5361 46.5835C5.53594 46.582 5.53577 46.5805 5.53561 46.579L5.53513 46.5738L5.53079 46.5294C5.52695 46.4898 5.52126 46.4303 5.51398 46.3519C5.49942 46.1953 5.47853 45.9635 5.4534 45.665C5.40313 45.0681 5.33597 44.2051 5.26877 43.1448C5.13429 41.0231 5 38.1169 5 34.9746C5 31.8324 5.13429 28.9262 5.26877 26.8045C5.33597 25.7442 5.40313 24.8812 5.4534 24.2843C5.47853 23.9858 5.49942 23.754 5.51398 23.5974C5.52126 23.519 5.52695 23.4595 5.53079 23.4199L5.53513 23.3755L5.5361 23.3658C5.71497 21.7389 6.41832 19.7923 7.43801 17.9771C8.45833 16.1608 9.74124 14.5725 11.001 13.6153L11.0087 13.6095L11.0441 13.5833C11.0757 13.56 11.1231 13.5249 11.1857 13.479C11.3109 13.3872 11.4966 13.252 11.7363 13.0795C12.2157 12.7346 12.9113 12.2413 13.7722 11.6502C15.4951 10.4671 17.8755 8.89565 20.509 7.33851L20.509 7.33853L20.515 7.33491C23.1466 5.75378 25.6593 4.42197 27.5153 3.48506C28.4426 3.01689 29.2046 2.64805 29.7337 2.39673C29.9982 2.27108 30.2044 2.17485 30.3438 2.11031C30.4136 2.07805 30.4666 2.05371 30.5019 2.03758L30.5413 2.01959L30.5508 2.01528L30.553 2.0143L30.5534 2.01412L30.5534 2.01411L30.5534 2.01409L30.5538 2.01391C32.0133 1.3534 33.9925 1 36.0185 1C38.0452 1 40.0093 1.35367 41.4409 2.01153L41.4466 2.01409L41.4466 2.01412L41.447 2.0143L41.4492 2.01528L41.4587 2.01959L41.4981 2.03758C41.5334 2.05371 41.5864 2.07805 41.6562 2.11031C41.7956 2.17485 42.0018 2.27108 42.2663 2.39672C42.7954 2.64805 43.5574 3.01689 44.4847 3.48506C46.3407 4.42197 48.8534 5.75378 51.485 7.33491L51.485 7.33496L51.4945 7.34056C54.1506 8.89666 56.5293 10.4671 58.2449 11.6492C59.1021 12.2399 59.7925 12.7328 60.2676 13.0773C60.5051 13.2496 60.6888 13.3846 60.8125 13.4762C60.8743 13.5221 60.9212 13.557 60.9523 13.5803L60.9871 13.6063L60.9955 13.6126L60.9973 13.614L60.9977 13.6143L60.9978 13.6143Z" stroke="white" stroke-width="2"/>
</g>
<path fill-rule="evenodd" clip-rule="evenodd" d="M29 26H43C44.1 26 45 26.9 45 28V42C45 43.1 44.1 44 43 44H29C27.89 44 27 43.1 27 42V38H29V42H43V28H29V32H27V28C27 26.9 27.89 26 29 26ZM35.5 40L34.09 38.59L36.67 36H27V34H36.67L34.09 31.41L35.5 30L40.5 35L35.5 40Z" fill="white"/>
<defs>
<filter id="filter0_d" x="0" y="0" width="72" height="78" filterUnits="userSpaceOnUse" color-interpolation-filters="sRGB">
<feFlood flood-opacity="0" result="BackgroundImageFix"/>
<feColorMatrix in="SourceAlpha" type="matrix" values="0 0 0 0 0 0 0 0 0 0 0 0 0 0 0 0 0 0 127 0"/>
<feOffset dy="4"/>
<feGaussianBlur stdDeviation="2"/>
<feColorMatrix type="matrix" values="0 0 0 0 0 0 0 0 0 0 0 0 0 0 0 0 0 0 0.25 0"/>
<feBlend mode="normal" in2="BackgroundImageFix" result="effect1_dropShadow"/>
<feBlend mode="normal" in="SourceGraphic" in2="effect1_dropShadow" result="shape"/>
</filter>
</defs>
</svg>
