<svg width="291" height="64" viewBox="0 0 291 64" fill="none" xmlns="http://www.w3.org/2000/svg">
<g clip-path="url(#clip0)">
<path d="M62.4678 47.6035V51.5H61.1553V41.5469H64.8262C65.9154 41.5469 66.7676 41.8249 67.3828 42.3809C68.0026 42.9368 68.3125 43.6729 68.3125 44.5889C68.3125 45.555 68.0094 46.3001 67.4033 46.8242C66.8018 47.3438 65.9382 47.6035 64.8125 47.6035H62.4678ZM62.4678 46.5303H64.8262C65.528 46.5303 66.0658 46.3662 66.4395 46.0381C66.8132 45.7054 67 45.2269 67 44.6025C67 44.0101 66.8132 43.5361 66.4395 43.1807C66.0658 42.8252 65.5531 42.6406 64.9014 42.627H62.4678V46.5303ZM69.3584 47.7334C69.3584 47.0088 69.4997 46.3571 69.7822 45.7783C70.0693 45.1995 70.4658 44.7529 70.9717 44.4385C71.4821 44.124 72.0632 43.9668 72.7148 43.9668C73.722 43.9668 74.5355 44.3154 75.1553 45.0127C75.7796 45.71 76.0918 46.6374 76.0918 47.7949V47.8838C76.0918 48.6038 75.9528 49.251 75.6748 49.8252C75.4014 50.3949 75.0072 50.8392 74.4922 51.1582C73.9818 51.4772 73.3939 51.6367 72.7285 51.6367C71.7259 51.6367 70.9124 51.2881 70.2881 50.5908C69.6683 49.8936 69.3584 48.9707 69.3584 47.8223V47.7334ZM70.6299 47.8838C70.6299 48.7041 70.819 49.3626 71.1973 49.8594C71.5801 50.3561 72.0905 50.6045 72.7285 50.6045C73.3711 50.6045 73.8815 50.3538 74.2598 49.8525C74.638 49.3467 74.8271 48.6403 74.8271 47.7334C74.8271 46.9222 74.6335 46.266 74.2461 45.7646C73.8633 45.2588 73.3529 45.0059 72.7148 45.0059C72.0905 45.0059 71.5869 45.2542 71.2041 45.751C70.8213 46.2477 70.6299 46.9587 70.6299 47.8838ZM80.6445 50.6045C81.0957 50.6045 81.4899 50.4678 81.8271 50.1943C82.1644 49.9209 82.3512 49.5791 82.3877 49.1689H83.584C83.5612 49.5928 83.4154 49.9961 83.1465 50.3789C82.8776 50.7617 82.5176 51.0671 82.0664 51.2949C81.6198 51.5228 81.1458 51.6367 80.6445 51.6367C79.6374 51.6367 78.8353 51.3018 78.2383 50.6318C77.6458 49.9574 77.3496 49.0368 77.3496 47.8701V47.6582C77.3496 46.9382 77.4818 46.2979 77.7461 45.7373C78.0104 45.1768 78.3887 44.7415 78.8809 44.4316C79.3776 44.1217 79.9632 43.9668 80.6377 43.9668C81.4671 43.9668 82.1553 44.2152 82.7021 44.7119C83.2536 45.2087 83.5475 45.8535 83.584 46.6465H82.3877C82.3512 46.168 82.1689 45.776 81.8408 45.4707C81.5173 45.1608 81.1162 45.0059 80.6377 45.0059C79.9951 45.0059 79.4961 45.2383 79.1406 45.7031C78.7897 46.1634 78.6143 46.8311 78.6143 47.7061V47.9453C78.6143 48.7975 78.7897 49.4538 79.1406 49.9141C79.4915 50.3743 79.9928 50.6045 80.6445 50.6045ZM87.9727 50.6045C88.4238 50.6045 88.818 50.4678 89.1553 50.1943C89.4925 49.9209 89.6794 49.5791 89.7158 49.1689H90.9121C90.8893 49.5928 90.7435 49.9961 90.4746 50.3789C90.2057 50.7617 89.8457 51.0671 89.3945 51.2949C88.9479 51.5228 88.474 51.6367 87.9727 51.6367C86.9655 51.6367 86.1634 51.3018 85.5664 50.6318C84.974 49.9574 84.6777 49.0368 84.6777 47.8701V47.6582C84.6777 46.9382 84.8099 46.2979 85.0742 45.7373C85.3385 45.1768 85.7168 44.7415 86.209 44.4316C86.7057 44.1217 87.2913 43.9668 87.9658 43.9668C88.7952 43.9668 89.4834 44.2152 90.0303 44.7119C90.5817 45.2087 90.8757 45.8535 90.9121 46.6465H89.7158C89.6794 46.168 89.4971 45.776 89.1689 45.4707C88.8454 45.1608 88.4443 45.0059 87.9658 45.0059C87.3232 45.0059 86.8242 45.2383 86.4688 45.7031C86.1178 46.1634 85.9424 46.8311 85.9424 47.7061V47.9453C85.9424 48.7975 86.1178 49.4538 86.4688 49.9141C86.8197 50.3743 87.321 50.6045 87.9727 50.6045ZM97.1191 44.1035H98.3838V51.5H97.1191V46.1064L93.708 51.5H92.4434V44.1035H93.708V49.5039L97.1191 44.1035ZM105.199 44.1035H106.464V51.5H105.199V46.1064L101.788 51.5H100.523V44.1035H101.788V49.5039L105.199 44.1035ZM105.541 41.4102C105.541 41.9616 105.352 42.4059 104.974 42.7432C104.6 43.0758 104.108 43.2422 103.497 43.2422C102.886 43.2422 102.392 43.0736 102.014 42.7363C101.635 42.3991 101.446 41.957 101.446 41.4102H102.479C102.479 41.7292 102.565 41.9798 102.738 42.1621C102.911 42.3398 103.164 42.4287 103.497 42.4287C103.816 42.4287 104.064 42.3398 104.242 42.1621C104.424 41.9844 104.516 41.7337 104.516 41.4102H105.541ZM111.461 50.6045C111.912 50.6045 112.306 50.4678 112.644 50.1943C112.981 49.9209 113.168 49.5791 113.204 49.1689H114.4C114.378 49.5928 114.232 49.9961 113.963 50.3789C113.694 50.7617 113.334 51.0671 112.883 51.2949C112.436 51.5228 111.962 51.6367 111.461 51.6367C110.454 51.6367 109.652 51.3018 109.055 50.6318C108.462 49.9574 108.166 49.0368 108.166 47.8701V47.6582C108.166 46.9382 108.298 46.2979 108.562 45.7373C108.827 45.1768 109.205 44.7415 109.697 44.4316C110.194 44.1217 110.78 43.9668 111.454 43.9668C112.284 43.9668 112.972 44.2152 113.519 44.7119C114.07 45.2087 114.364 45.8535 114.4 46.6465H113.204C113.168 46.168 112.985 45.776 112.657 45.4707C112.334 45.1608 111.933 45.0059 111.454 45.0059C110.812 45.0059 110.312 45.2383 109.957 45.7031C109.606 46.1634 109.431 46.8311 109.431 47.7061V47.9453C109.431 48.7975 109.606 49.4538 109.957 49.9141C110.308 50.3743 110.809 50.6045 111.461 50.6045ZM118.126 48.3486H117.203V51.5H115.932V44.1035H117.203V47.2344H118.03L120.519 44.1035H122.05L119.124 47.6582L122.296 51.5H120.689L118.126 48.3486ZM122.897 47.7334C122.897 47.0088 123.039 46.3571 123.321 45.7783C123.608 45.1995 124.005 44.7529 124.511 44.4385C125.021 44.124 125.602 43.9668 126.254 43.9668C127.261 43.9668 128.075 44.3154 128.694 45.0127C129.319 45.71 129.631 46.6374 129.631 47.7949V47.8838C129.631 48.6038 129.492 49.251 129.214 49.8252C128.94 50.3949 128.546 50.8392 128.031 51.1582C127.521 51.4772 126.933 51.6367 126.268 51.6367C125.265 51.6367 124.451 51.2881 123.827 50.5908C123.207 49.8936 122.897 48.9707 122.897 47.8223V47.7334ZM124.169 47.8838C124.169 48.7041 124.358 49.3626 124.736 49.8594C125.119 50.3561 125.63 50.6045 126.268 50.6045C126.91 50.6045 127.421 50.3538 127.799 49.8525C128.177 49.3467 128.366 48.6403 128.366 47.7334C128.366 46.9222 128.173 46.266 127.785 45.7646C127.402 45.2588 126.892 45.0059 126.254 45.0059C125.63 45.0059 125.126 45.2542 124.743 45.751C124.36 46.2477 124.169 46.9587 124.169 47.8838ZM136.002 44.1035H137.267V51.5H136.002V46.1064L132.591 51.5H131.326V44.1035H132.591V49.5039L136.002 44.1035ZM136.344 41.4102C136.344 41.9616 136.155 42.4059 135.776 42.7432C135.403 43.0758 134.91 43.2422 134.3 43.2422C133.689 43.2422 133.195 43.0736 132.816 42.7363C132.438 42.3991 132.249 41.957 132.249 41.4102H133.281C133.281 41.7292 133.368 41.9798 133.541 42.1621C133.714 42.3398 133.967 42.4287 134.3 42.4287C134.619 42.4287 134.867 42.3398 135.045 42.1621C135.227 41.9844 135.318 41.7337 135.318 41.4102H136.344ZM147.883 42.5449H148.095C148.847 42.5495 149.533 42.7249 150.152 43.0713C150.772 43.4176 151.253 43.8962 151.595 44.5068C151.941 45.113 152.114 45.792 152.114 46.5439C152.114 47.3005 151.941 47.9863 151.595 48.6016C151.248 49.2168 150.77 49.6976 150.159 50.0439C149.549 50.3857 148.869 50.5612 148.122 50.5703H147.883V51.9102H146.611V50.5703H146.42C145.659 50.5703 144.966 50.3971 144.342 50.0508C143.722 49.7044 143.239 49.2259 142.893 48.6152C142.551 48.0046 142.38 47.3187 142.38 46.5576C142.38 45.7965 142.551 45.1107 142.893 44.5C143.239 43.8893 143.722 43.4108 144.342 43.0645C144.966 42.7181 145.659 42.5449 146.42 42.5449H146.611V41.1367H147.883V42.5449ZM146.42 43.5771C145.563 43.5771 144.884 43.8415 144.383 44.3701C143.886 44.8942 143.638 45.6234 143.638 46.5576C143.638 47.4964 143.886 48.2279 144.383 48.752C144.88 49.2715 145.563 49.5312 146.434 49.5312H146.611V43.5771H146.42ZM147.883 43.5771V49.5312H148.074C148.945 49.5312 149.624 49.2646 150.111 48.7314C150.604 48.1937 150.85 47.4645 150.85 46.5439C150.85 45.6325 150.604 44.9102 150.111 44.377C149.624 43.8438 148.936 43.5771 148.047 43.5771H147.883ZM156.64 51.6367C155.637 51.6367 154.821 51.3086 154.192 50.6523C153.563 49.9915 153.249 49.1097 153.249 48.0068V47.7744C153.249 47.0407 153.388 46.3867 153.666 45.8125C153.949 45.2337 154.34 44.7826 154.842 44.459C155.348 44.1309 155.895 43.9668 156.482 43.9668C157.444 43.9668 158.191 44.2835 158.725 44.917C159.258 45.5505 159.524 46.4574 159.524 47.6377V48.1641H154.514C154.532 48.8932 154.744 49.4834 155.149 49.9346C155.56 50.3812 156.079 50.6045 156.708 50.6045C157.155 50.6045 157.533 50.5133 157.843 50.3311C158.153 50.1488 158.424 49.9072 158.656 49.6064L159.429 50.208C158.809 51.1605 157.879 51.6367 156.64 51.6367ZM156.482 45.0059C155.972 45.0059 155.544 45.1927 155.197 45.5664C154.851 45.9355 154.637 46.4551 154.555 47.125H158.26V47.0293C158.223 46.3867 158.05 45.89 157.74 45.5391C157.43 45.1836 157.011 45.0059 156.482 45.0059ZM160.933 50.4678L161.37 49.9277C161.862 49.2897 162.143 48.3327 162.211 47.0566L162.327 44.1035H167.092V50.4678H168.042V53.6738H166.777V51.5H161.616V53.6738H160.352L160.358 50.4678H160.933ZM162.43 50.4678H165.827V45.2725H163.551L163.476 47.0361C163.398 48.5081 163.049 49.652 162.43 50.4678ZM172.513 51.6367C171.51 51.6367 170.694 51.3086 170.065 50.6523C169.437 49.9915 169.122 49.1097 169.122 48.0068V47.7744C169.122 47.0407 169.261 46.3867 169.539 45.8125C169.822 45.2337 170.214 44.7826 170.715 44.459C171.221 44.1309 171.768 43.9668 172.355 43.9668C173.317 43.9668 174.064 44.2835 174.598 44.917C175.131 45.5505 175.397 46.4574 175.397 47.6377V48.1641H170.387C170.405 48.8932 170.617 49.4834 171.022 49.9346C171.433 50.3812 171.952 50.6045 172.581 50.6045C173.028 50.6045 173.406 50.5133 173.716 50.3311C174.026 50.1488 174.297 49.9072 174.529 49.6064L175.302 50.208C174.682 51.1605 173.752 51.6367 172.513 51.6367ZM172.355 45.0059C171.845 45.0059 171.417 45.1927 171.07 45.5664C170.724 45.9355 170.51 46.4551 170.428 47.125H174.133V47.0293C174.096 46.3867 173.923 45.89 173.613 45.5391C173.303 45.1836 172.884 45.0059 172.355 45.0059ZM183.115 47.8838C183.115 49.0094 182.858 49.9163 182.343 50.6045C181.828 51.2926 181.131 51.6367 180.251 51.6367C179.353 51.6367 178.647 51.3519 178.132 50.7822V54.3438H176.867V44.1035H178.022L178.084 44.9238C178.599 44.2858 179.314 43.9668 180.23 43.9668C181.119 43.9668 181.821 44.3018 182.336 44.9717C182.855 45.6416 183.115 46.5736 183.115 47.7676V47.8838ZM181.851 47.7402C181.851 46.9062 181.673 46.2477 181.317 45.7646C180.962 45.2816 180.474 45.04 179.854 45.04C179.089 45.04 178.515 45.3796 178.132 46.0586V49.5928C178.51 50.2673 179.089 50.6045 179.868 50.6045C180.474 50.6045 180.955 50.3652 181.311 49.8867C181.671 49.4036 181.851 48.6882 181.851 47.7402ZM189.295 51.5C189.222 51.3542 189.163 51.0944 189.117 50.7207C188.529 51.3314 187.827 51.6367 187.012 51.6367C186.283 51.6367 185.683 51.4316 185.214 51.0215C184.749 50.6068 184.517 50.0827 184.517 49.4492C184.517 48.679 184.808 48.082 185.392 47.6582C185.979 47.2298 186.804 47.0156 187.866 47.0156H189.097V46.4346C189.097 45.9925 188.965 45.6416 188.7 45.3818C188.436 45.1175 188.046 44.9854 187.531 44.9854C187.08 44.9854 186.702 45.0993 186.396 45.3271C186.091 45.555 185.938 45.8307 185.938 46.1543H184.667C184.667 45.7852 184.797 45.4297 185.057 45.0879C185.321 44.7415 185.676 44.4681 186.123 44.2676C186.574 44.0671 187.069 43.9668 187.606 43.9668C188.459 43.9668 189.126 44.181 189.609 44.6094C190.092 45.0332 190.343 45.6188 190.361 46.3662V49.7705C190.361 50.4495 190.448 50.9896 190.621 51.3906V51.5H189.295ZM187.196 50.5361C187.593 50.5361 187.969 50.4336 188.324 50.2285C188.68 50.0234 188.937 49.7568 189.097 49.4287V47.9111H188.105C186.556 47.9111 185.781 48.3646 185.781 49.2715C185.781 49.668 185.913 49.9779 186.178 50.2012C186.442 50.4245 186.782 50.5361 187.196 50.5361ZM192.453 44.1035H193.725V50.4678H197.129V44.1035H198.394V50.4678H199.275L199.152 53.6943H198.018V51.5H192.453V44.1035ZM205.428 44.1035H206.692V51.5H205.428V46.1064L202.017 51.5H200.752V44.1035H202.017V49.5039L205.428 44.1035ZM213.508 44.1035H214.772V51.5H213.508V46.1064L210.097 51.5H208.832V44.1035H210.097V49.5039L213.508 44.1035Z" fill="#DDE1E6"/>
<path d="M70.5371 16.2734H63.9746V28.5H61.5137V14.2812H70.5371V16.2734ZM70.4199 23.1191C70.4199 22.084 70.625 21.153 71.0352 20.3262C71.4453 19.4928 72.0215 18.8548 72.7637 18.4121C73.5059 17.9629 74.3587 17.7383 75.3223 17.7383C76.748 17.7383 77.9036 18.1973 78.7891 19.1152C79.681 20.0332 80.1628 21.2507 80.2344 22.7676L80.2441 23.3242C80.2441 24.3659 80.0423 25.2969 79.6387 26.1172C79.2415 26.9375 78.6686 27.5723 77.9199 28.0215C77.1777 28.4707 76.3184 28.6953 75.3418 28.6953C73.8509 28.6953 72.6562 28.2005 71.7578 27.2109C70.8659 26.2148 70.4199 24.89 70.4199 23.2363V23.1191ZM72.793 23.3242C72.793 24.4115 73.0176 25.2643 73.4668 25.8828C73.916 26.4948 74.541 26.8008 75.3418 26.8008C76.1426 26.8008 76.7643 26.4883 77.207 25.8633C77.6562 25.2383 77.8809 24.3236 77.8809 23.1191C77.8809 22.0514 77.6497 21.2051 77.1875 20.5801C76.7318 19.9551 76.11 19.6426 75.3223 19.6426C74.5475 19.6426 73.9323 19.9518 73.4766 20.5703C73.0208 21.1823 72.793 22.1003 72.793 23.3242ZM86.5918 26.8008C87.1842 26.8008 87.6758 26.6283 88.0664 26.2832C88.457 25.9382 88.6654 25.5117 88.6914 25.0039H90.9277C90.9017 25.6615 90.6966 26.2767 90.3125 26.8496C89.9284 27.416 89.4076 27.8652 88.75 28.1973C88.0924 28.5293 87.3828 28.6953 86.6211 28.6953C85.1432 28.6953 83.9714 28.2168 83.1055 27.2598C82.2396 26.3027 81.8066 24.9811 81.8066 23.2949V23.0508C81.8066 21.4427 82.2363 20.1569 83.0957 19.1934C83.9551 18.2233 85.127 17.7383 86.6113 17.7383C87.8678 17.7383 88.89 18.1061 89.6777 18.8418C90.472 19.571 90.8887 20.5312 90.9277 21.7227H88.6914C88.6654 21.1172 88.457 20.6191 88.0664 20.2285C87.6823 19.8379 87.1908 19.6426 86.5918 19.6426C85.8236 19.6426 85.2311 19.9225 84.8145 20.4824C84.3978 21.0358 84.1862 21.8789 84.1797 23.0117V23.3926C84.1797 24.5384 84.3848 25.3945 84.7949 25.9609C85.2116 26.5208 85.8105 26.8008 86.5918 26.8008ZM96.416 25.1016L98.5645 17.9336H101.094L96.8945 30.1016C96.25 31.8789 95.1562 32.7676 93.6133 32.7676C93.2682 32.7676 92.8874 32.709 92.4707 32.5918V30.7559L92.9199 30.7852C93.5189 30.7852 93.9681 30.6745 94.2676 30.4531C94.5736 30.2383 94.8145 29.8737 94.9902 29.3594L95.332 28.4512L91.6211 17.9336H94.1797L96.416 25.1016ZM106.67 26.8008C107.262 26.8008 107.754 26.6283 108.145 26.2832C108.535 25.9382 108.743 25.5117 108.77 25.0039H111.006C110.98 25.6615 110.775 26.2767 110.391 26.8496C110.007 27.416 109.486 27.8652 108.828 28.1973C108.171 28.5293 107.461 28.6953 106.699 28.6953C105.221 28.6953 104.049 28.2168 103.184 27.2598C102.318 26.3027 101.885 24.9811 101.885 23.2949V23.0508C101.885 21.4427 102.314 20.1569 103.174 19.1934C104.033 18.2233 105.205 17.7383 106.689 17.7383C107.946 17.7383 108.968 18.1061 109.756 18.8418C110.55 19.571 110.967 20.5312 111.006 21.7227H108.77C108.743 21.1172 108.535 20.6191 108.145 20.2285C107.76 19.8379 107.269 19.6426 106.67 19.6426C105.902 19.6426 105.309 19.9225 104.893 20.4824C104.476 21.0358 104.264 21.8789 104.258 23.0117V23.3926C104.258 24.5384 104.463 25.3945 104.873 25.9609C105.29 26.5208 105.889 26.8008 106.67 26.8008ZM121.777 17.9336V28.5H119.404V19.8477H116.416L116.221 23.5293C116.097 25.3001 115.755 26.5729 115.195 27.3477C114.642 28.1159 113.792 28.5 112.646 28.5H111.914L111.904 26.5273L112.393 26.4785C112.913 26.4069 113.291 26.0911 113.525 25.5312C113.766 24.9648 113.919 23.9362 113.984 22.4453L114.18 17.9336H121.777ZM127.998 25.1016L130.146 17.9336H132.676L128.477 30.1016C127.832 31.8789 126.738 32.7676 125.195 32.7676C124.85 32.7676 124.469 32.709 124.053 32.5918V30.7559L124.502 30.7852C125.101 30.7852 125.55 30.6745 125.85 30.4531C126.156 30.2383 126.396 29.8737 126.572 29.3594L126.914 28.4512L123.203 17.9336H125.762L127.998 25.1016ZM141.084 19.8477H136.494V28.5H134.131V17.9336H141.084V19.8477ZM149.023 17.9336H151.387V28.5H149.023V21.4492L144.883 28.5H142.52V17.9336H144.883V24.9844L149.023 17.9336Z" fill="#F4F7FB"/>
<path fill-rule="evenodd" clip-rule="evenodd" d="M32.7619 23.2721C32.0614 22.6664 31.0541 22.6803 30.4762 22.8561C30.8547 22.3978 31.7368 22.0217 31.9964 21.9761C32.1941 22.0493 32.7619 22.6245 32.7619 23.2721ZM35.7859 20.9106C35.2848 18.3097 29.0569 20.0333 25.9204 18.9285C25.8604 19.6868 26.886 20.9017 27.8671 21.3511C26.1902 22.7638 24.6847 25.6098 24.3806 29.0868C24.0778 25.6098 22.5722 22.7638 20.8953 21.3513C21.8762 20.9018 22.9029 19.687 22.8419 18.9289C19.7055 20.0336 13.4774 18.3102 12.9755 20.9111C12.87 21.4618 13.1429 22.3005 13.4376 22.5418C13.4904 22.3673 13.7657 21.7966 14.6339 21.6687C19.0217 21.0253 22.6851 27.5885 19.3782 30.2421C19.3278 30.2829 19.3564 30.3571 19.4244 30.3571H29.3388C29.406 30.3571 29.4346 30.2827 29.3849 30.2423C26.0772 27.5888 29.7406 21.0256 34.1285 21.6691C34.9972 21.7969 35.2719 22.3675 35.3248 22.542C35.6195 22.3006 35.8924 21.462 35.7861 20.9113L35.7859 20.9106ZM36.2576 14.7127C36.1818 14.4588 38.6533 14.4524 38.6533 16.067C38.6533 17.1488 37.1749 17.6613 37.1749 18.7842C37.1749 19.307 37.714 19.6904 37.8794 19.6904C37.4985 17.888 39.073 18.8313 39.4983 19.1682C38.6533 16.7442 40.5551 16.7594 40.3679 15.6479C40.2376 14.8714 38.5844 15.1059 37.9863 14.7127C36.9246 14.0153 35.6685 11.301 34.8409 14.0153C36.3839 15.5103 35.486 17.7111 33.527 17.7111C33.527 17.7111 33.5162 18.0337 33.5341 18.0593C35.8706 17.94 36.685 16.1477 36.2576 14.7127V14.7127ZM8.50179 19.1682C8.92693 18.8313 10.5012 17.888 10.1213 19.6904C10.2859 19.6904 10.825 19.307 10.825 18.7842C10.825 17.6613 9.34657 17.1489 9.34657 16.0671C9.34657 14.4525 11.818 14.4589 11.7423 14.7128C11.3155 16.1479 12.1299 17.9402 14.4664 18.0593C14.4837 18.0337 14.4728 17.711 14.4728 17.711C12.5147 17.711 11.6168 15.5104 13.159 14.0152C12.3314 11.3012 11.0753 14.0152 10.0136 14.7126C9.41533 15.1059 7.76209 14.8713 7.632 15.648C7.44558 16.7597 9.34673 16.7446 8.50196 19.1686L8.50179 19.1682ZM15.2383 23.2721C15.9393 22.6664 16.9468 22.6803 17.5238 22.8561C17.1469 22.3978 16.2632 22.0217 16.0043 21.9761C15.8066 22.0493 15.2381 22.6245 15.2381 23.2721H15.2383ZM25.1427 8.985L24.0001 7.5L22.8571 8.985L23.9998 10.5476L25.1429 8.985H25.1427ZM31.9998 13.2273L31.2379 12.0714L30.4762 13.2273L31.2377 14.3571L32 13.2273H31.9998ZM38.857 42.2415L37.7144 41.0239L36.5714 42.2413L37.7144 43.3096L38.8571 42.2413L38.857 42.2415ZM17.5237 13.2273L16.7616 12.0714L16 13.2273L16.7618 14.3571L17.5238 13.2273H17.5237ZM15.3362 18.1665H18.474C21.1121 18.1665 22.299 16.5299 22.6577 15.1107H25.342C25.7009 16.5299 26.8872 18.1663 29.5261 18.1663H32.6639C32.6639 18.1663 33.2128 17.4137 33.3505 17.0411C33.846 15.7001 33.2128 15.0745 32.2888 15.0745L31.0944 16.1686L29.9002 15.0748C28.9763 15.0748 28.343 15.7001 28.8386 17.0412C28.9019 17.2126 29.0533 17.4645 29.1967 17.686C28.0833 17.5314 26.662 16.761 26.3504 15.1107C26.3504 15.1107 27.173 13.79 27.3797 13.2555C28.1214 11.3332 27.174 10.5476 25.7885 10.5476L23.9998 12.6725L22.2111 10.5476C20.8256 10.5476 19.8784 11.3332 20.6209 13.2555C20.8264 13.79 21.65 15.1109 21.65 15.1109C21.3376 16.761 19.9166 17.5314 18.8032 17.6862C18.9473 17.4643 19.098 17.2126 19.161 17.0411C19.6557 15.7001 19.0242 15.0746 18.0996 15.0746L16.9051 16.1687L15.7106 15.075C14.7862 15.075 14.1546 15.7002 14.6493 17.0414C14.787 17.4139 15.3367 18.1667 15.3367 18.1667L15.3362 18.1665ZM47.4952 27.475C46.9023 27.7758 43.4242 29.4084 38.9689 28.8045C39.0151 28.5916 39.0543 28.3771 39.0864 28.1616C42.0516 27.8062 44.462 27.3021 45.9981 26.446C47.749 25.4693 48.5147 23.1379 47.6309 21.4036C47.608 21.3599 47.5445 21.352 47.5129 21.3889C47.0284 21.9476 43.9833 25.2672 39.1854 26.2992C39.1732 26.0501 39.1505 25.8016 39.1174 25.5544C41.4477 24.2302 43.7225 22.7044 44.8062 21.3092C46.4435 19.1997 46.2929 16.5089 44.7347 15.137C44.7185 15.1231 44.6971 15.1168 44.676 15.1198C44.6549 15.1228 44.636 15.1348 44.6243 15.1526C44.1314 15.9678 39.5167 23.4417 34.4503 26.6686C34.3885 26.7082 34.3262 26.747 34.2634 26.785C34.1181 26.8734 34.1022 27.0627 34.2257 27.175C34.8101 27.7054 35.173 28.4436 35.173 29.2633C35.173 30.6886 34.0769 31.8738 32.6279 32.131C31.8916 32.274 30.8289 32.2324 29.8078 31.894C29.7618 31.8792 29.7143 31.9096 29.7143 31.9558V36.4691C29.7143 36.5418 29.8245 36.5598 29.8504 36.4905C30.4713 34.8425 32.3291 34.4925 33.1417 34.4925C33.4341 36.2535 33.9564 37.7122 34.6348 38.4973C35.7398 39.7731 37.544 39.7552 38.3263 38.8732C38.3391 38.8585 38.3446 38.8388 38.3412 38.8197C38.3377 38.8005 38.3258 38.7839 38.3087 38.7746C37.8491 38.51 35.2191 36.8918 34.6927 34.2402C34.8993 34.17 35.1013 34.0867 35.2975 33.9909C36.1465 35.3988 37.3822 36.6527 38.3769 37.1317C40.048 37.9348 41.5777 37.5442 42.2561 36.3684C42.2807 36.327 42.2506 36.2754 42.2007 36.2708C41.1671 36.1881 37.995 35.277 36.6444 33.0575C36.8006 32.9153 36.9498 32.7656 37.0914 32.6089C38.505 33.6872 40.5031 34.6404 41.9337 34.835C43.6078 35.0631 45.5045 34.5277 45.5504 32.577C45.5512 32.538 45.5163 32.506 45.475 32.5083C44.8797 32.5445 40.9398 32.7162 38.1323 31.1013C38.2298 30.9154 38.3208 30.7262 38.405 30.534C38.405 30.534 42.6471 31.5389 44.6571 31.2061C46.6545 30.8758 47.8244 29.3836 47.5986 27.5271C47.5921 27.4811 47.5383 27.4537 47.4953 27.4755L47.4952 27.475ZM9.59441 30.5331C9.67883 30.7254 9.77002 30.9147 9.86779 31.1005C7.06099 32.7147 3.12263 32.5443 2.5247 32.5076C2.48271 32.5053 2.44762 32.5389 2.4486 32.5772C2.49534 34.5272 4.39146 35.0625 6.06554 34.8344C7.49558 34.6398 9.4947 33.6866 10.9079 32.6084C11.0497 32.7649 11.1989 32.9146 11.3549 33.057C10.0036 35.2765 6.83189 36.1878 5.79839 36.2704C5.74837 36.2754 5.71918 36.3268 5.74296 36.3682C6.42141 37.5441 7.95117 37.9347 9.62311 37.1316C10.6169 36.6525 11.8526 35.3986 12.7013 33.9907C12.8977 34.0862 13.0998 34.1694 13.3065 34.24C12.78 36.8916 10.15 38.5096 9.69035 38.7747C9.67335 38.7841 9.6615 38.8007 9.65809 38.8198C9.65469 38.8389 9.66009 38.8586 9.6728 38.8733C10.4551 39.7552 12.26 39.7731 13.365 38.4973C14.0435 37.712 14.5651 36.2533 14.8574 34.4922C15.6708 34.4922 17.5281 34.8423 18.1488 36.4902C18.1755 36.5597 18.2857 36.5416 18.2857 36.4688V31.9554C18.2857 31.9094 18.2373 31.8789 18.1914 31.8937C17.1705 32.2322 16.1075 32.2733 15.372 32.1303C13.9223 31.8734 12.826 30.6882 12.826 29.263C12.826 28.4436 13.19 27.7046 13.7732 27.1742C13.8978 27.0625 13.8809 26.8731 13.7368 26.7847C13.6734 26.7468 13.6106 26.7081 13.5482 26.6685C8.48465 23.4433 3.87242 15.9741 3.37518 15.1537C3.36337 15.1353 3.34422 15.123 3.32266 15.1198C3.30109 15.1167 3.27922 15.123 3.26268 15.1373C1.70668 16.51 1.55548 19.1998 3.19298 21.3088C4.27667 22.7041 6.55162 24.23 8.88119 25.5543C8.84836 25.8014 8.82593 26.0498 8.81395 26.2988C4.01985 25.2677 0.9769 21.9535 0.487863 21.3908C0.455064 21.3524 0.390285 21.3601 0.368146 21.404C-0.514154 23.1394 0.251709 25.469 2.00089 26.4457C3.53721 27.3019 5.94779 27.806 8.913 28.1614C8.94504 28.377 8.98415 28.5914 9.03026 28.8043C4.5794 29.4075 1.10301 27.7785 0.505411 27.4755C0.461132 27.4528 0.407341 27.4809 0.401765 27.5277C0.176598 29.3841 1.34573 30.8749 3.3432 31.2054C5.35265 31.5382 9.59474 30.5332 9.59474 30.5332L9.59441 30.5331ZM37.4792 44.6449L35.9208 43.411C35.2988 43.7837 34.8418 44.3753 34.6643 45.069C33.7268 45.2009 31.1714 44.6297 31.4199 44.2509C34.2207 40.2866 32.0785 37.9262 29.5037 38.0576V40.7197C29.5037 41.5749 28.7622 42.2678 27.8487 42.2678H26.0707C24.7953 42.2678 23.965 43.5579 23.965 43.5579C23.965 43.5579 23.1347 42.2677 21.8594 42.2677H20.0815C19.1672 42.2677 18.4274 41.5747 18.4274 40.7197V38.0576C15.8526 37.9262 13.7087 40.2864 16.5103 44.2507C16.7567 44.6257 14.1298 45.226 12.8978 45.0743C12.5731 44.7355 12.1048 44.5219 11.5806 44.5219C11.3576 44.522 11.1365 44.562 10.9275 44.64C10.9275 44.64 6.08586 40.0269 5.99724 39.9818L6.03692 39.8886C6.31303 39.3695 5.89093 38.8038 5.62408 38.8438C5.93408 38.4694 5.94847 36.8314 4.22867 36.4524C4.27909 36.7815 4.30472 37.453 4.30472 37.453C4.30472 37.453 2.97742 36.7309 2.3108 37.3542C1.72519 38.0518 2.5378 39.3174 2.5378 39.3174C2.5378 39.3174 1.85861 39.3341 1.52381 39.3055C2.01601 40.9809 3.66703 40.8623 4.02415 40.5317C4.001 40.7979 4.59786 41.1777 5.10378 40.8732L5.32599 40.7651C5.36517 40.8178 10.0807 45.3012 10.0807 45.3012C9.86407 45.6247 9.76106 46.0216 9.83216 46.4449C9.94409 47.1063 10.4913 47.6545 11.1907 47.7969C11.6846 47.8967 12.1488 47.8002 12.5211 47.5809L13.7694 48.7468C13.8802 48.8482 14.0306 48.9115 14.1983 48.8995C14.5037 48.8789 14.7323 48.63 14.7092 48.3443C14.6992 48.2153 14.6338 48.1047 14.5435 48.0207C14.5237 47.9987 13.2721 46.8294 13.2721 46.8294C14.3046 46.1012 16.2283 45.5879 17.8247 45.5879C18.1051 45.5879 18.2371 45.349 18.1405 45.1149C17.4172 43.3646 18.9721 42.0965 20.5808 43.1287C21.2825 43.5787 21.9953 44.4654 22.5323 45.9446C19.893 46.5877 16.5791 48.3594 15.9087 50.2934C15.6504 51.0401 16.5032 52.058 17.5389 52.2628C17.5572 52.2669 17.5763 52.2634 17.5921 52.2531C17.6078 52.2429 17.6188 52.2267 17.6227 52.2083C18.1636 49.3211 21.2491 47.1697 22.8545 46.8043C22.935 47.0217 22.9087 46.9514 22.9894 47.168C21.2408 48.0002 19.5452 49.7552 19.0611 51.8419C18.8387 52.7974 19.8977 53.6587 20.7718 53.8945C20.8158 53.9061 20.8589 53.8755 20.8614 53.8329C21.0276 51.1942 22.1854 48.9531 23.2227 47.9337C23.2511 48.133 23.2725 48.3334 23.2867 48.5343C23.2867 48.5343 22.2246 51.5121 22.2246 53.6849C22.2246 54.6958 23.7175 55.4014 23.9379 55.5C24.2135 55.4014 25.7053 54.6958 25.7053 53.6849C25.7053 51.512 24.6436 48.5341 24.6436 48.5341C24.6581 48.3332 24.6797 48.1329 24.7084 47.9335C25.745 48.9534 26.9035 51.1933 27.069 53.8321C27.071 53.8531 27.082 53.8721 27.0992 53.8842C27.1165 53.8962 27.1381 53.9 27.1583 53.8945C28.0336 53.6587 29.0915 52.7974 28.8702 51.8419C28.3851 49.7555 26.6902 48.0002 24.9418 47.168C25.0217 46.9514 24.9952 47.0216 25.0761 46.8041C26.6823 47.1695 29.7666 49.3209 30.3077 52.2081C30.316 52.2464 30.3535 52.2707 30.3916 52.2625C31.4265 52.0578 32.2807 51.0396 32.0209 50.2931C31.3521 48.3591 28.0374 46.5873 25.3977 45.9443C25.9357 44.4652 26.6486 43.5784 27.3502 43.1283C28.958 42.0961 30.5131 43.3641 29.7897 45.1146C29.6932 45.3487 29.8241 45.5876 30.1055 45.5876C31.9115 45.5876 34.1364 46.2439 35.0168 47.1244C35.5794 47.9739 36.6189 48.5173 37.7921 48.401C39.125 48.2696 40.2119 47.262 40.362 46.0162C40.4931 44.9247 39.9321 43.9448 39.038 43.4107L37.4789 44.6447L37.4792 44.6449ZM25.8154 36.7132C26.3473 36.5145 27.181 36.6753 27.1527 37.4484C27.1459 37.6239 27.3899 37.6239 27.4077 37.4448C27.5669 36.287 26.79 35.9536 25.9768 36.0892C25.8757 35.6911 25.7931 35.3431 25.699 34.9984C25.6239 34.7193 25.5963 34.1952 25.9171 34.1952C26.09 34.1952 26.0205 34.6826 26.0042 34.8926C25.9899 35.0768 26.0557 35.1883 26.2042 35.1936C26.2967 35.1974 26.4124 35.0784 26.4814 34.9995C26.9468 34.4695 27.0548 33.6491 26.5096 33.2535C26.0534 32.9213 24.9111 33.1685 24.5972 33.6416C24.5497 33.4634 24.3232 33.1691 24.2145 33.041C24.1089 32.9159 24.0815 32.8302 24.2275 32.7205C24.2964 32.6672 24.5047 32.4586 24.5047 32.2433C24.5047 32.1161 24.4065 31.881 24.0951 31.881C23.8493 31.881 23.5761 32.0523 23.5761 32.4344C23.5761 32.5194 23.5967 32.6103 23.651 32.7082C23.4958 32.6824 23.0738 32.6929 22.8571 32.7468L25.8528 41.0238C26.7103 40.5977 27.3389 39.9229 27.3389 39.1987C27.3389 38.5816 26.4361 38.7863 25.9977 39.2678C25.8567 38.4852 25.7313 37.7626 25.5941 37.0424C25.5567 36.8437 25.657 36.7724 25.8154 36.7126V36.7132ZM21.833 31.3252L22.4757 33.0863C21.9255 33.2155 21.0406 33.6111 21.0406 34.1352C21.0406 34.8329 22.2923 35.2872 23.0159 35.2327C22.98 35.3919 23.0214 35.5337 23.1339 35.6634C22.8713 35.6634 22.3758 35.784 22.2131 35.9569C21.8293 35.6044 21.229 35.476 20.9436 35.6905C20.6568 35.9068 20.6482 36.2731 20.9476 36.6872C21.1562 36.9739 21.2345 37.2567 21 37.5888C21.8722 37.5888 21.551 36.4703 21.8927 36.4703C21.8479 36.6872 21.8752 36.9381 21.9745 37.2165C22.0402 37.4016 22.0402 37.533 21.9276 37.711C21.6462 38.1548 21.2086 39.1739 21.2678 40.0956C20.9819 40.094 20.8365 40.0251 20.9372 39.6397C20.9748 39.4964 20.885 39.394 20.7661 39.5708C20.6348 39.7657 20.5714 40.0988 20.5714 40.2411C20.5714 41.0617 21.5628 41.2269 21.9409 41.0534C23.0353 42.0982 25.1851 41.8194 25.9048 41.4689L22.1199 31.2255C22.0426 31.032 21.7651 31.1245 21.833 31.3255V31.3252ZM21.3399 40.2619C21.2661 39.7555 21.8266 38.85 22.5396 37.9762C22.3878 38.5457 22.4821 39.5269 22.7797 39.8649C22.2625 39.8649 21.6483 39.987 21.3397 40.2619V40.2619H21.3399Z" fill="#FEFEFE"/>
<mask id="mask0" mask-type="alpha" maskUnits="userSpaceOnUse" x="0" y="7" width="48" height="49">
<path fill-rule="evenodd" clip-rule="evenodd" d="M32.7619 23.2721C32.0614 22.6664 31.0541 22.6803 30.4762 22.8561C30.8547 22.3978 31.7368 22.0217 31.9964 21.9761C32.1941 22.0493 32.7619 22.6245 32.7619 23.2721ZM35.7859 20.9106C35.2848 18.3097 29.0569 20.0333 25.9204 18.9285C25.8604 19.6868 26.886 20.9017 27.8671 21.3511C26.1902 22.7638 24.6847 25.6098 24.3806 29.0868C24.0778 25.6098 22.5722 22.7638 20.8953 21.3513C21.8762 20.9018 22.9029 19.687 22.8419 18.9289C19.7055 20.0336 13.4774 18.3102 12.9755 20.9111C12.87 21.4618 13.1429 22.3005 13.4376 22.5418C13.4904 22.3673 13.7657 21.7966 14.6339 21.6687C19.0217 21.0253 22.6851 27.5885 19.3782 30.2421C19.3278 30.2829 19.3564 30.3571 19.4244 30.3571H29.3388C29.406 30.3571 29.4346 30.2827 29.3849 30.2423C26.0772 27.5888 29.7406 21.0256 34.1285 21.6691C34.9972 21.7969 35.2719 22.3675 35.3248 22.542C35.6195 22.3006 35.8924 21.462 35.7861 20.9113L35.7859 20.9106ZM36.2576 14.7127C36.1818 14.4588 38.6533 14.4524 38.6533 16.067C38.6533 17.1488 37.1749 17.6613 37.1749 18.7842C37.1749 19.307 37.714 19.6904 37.8794 19.6904C37.4985 17.888 39.073 18.8313 39.4983 19.1682C38.6533 16.7442 40.5551 16.7594 40.3679 15.6479C40.2376 14.8714 38.5844 15.1059 37.9863 14.7127C36.9246 14.0153 35.6685 11.301 34.8409 14.0153C36.3839 15.5103 35.486 17.7111 33.527 17.7111C33.527 17.7111 33.5162 18.0337 33.5341 18.0593C35.8706 17.94 36.685 16.1477 36.2576 14.7127V14.7127ZM8.50179 19.1682C8.92693 18.8313 10.5012 17.888 10.1213 19.6904C10.2859 19.6904 10.825 19.307 10.825 18.7842C10.825 17.6613 9.34657 17.1489 9.34657 16.0671C9.34657 14.4525 11.818 14.4589 11.7423 14.7128C11.3155 16.1479 12.1299 17.9402 14.4664 18.0593C14.4837 18.0337 14.4728 17.711 14.4728 17.711C12.5147 17.711 11.6168 15.5104 13.159 14.0152C12.3314 11.3012 11.0753 14.0152 10.0136 14.7126C9.41533 15.1059 7.76209 14.8713 7.632 15.648C7.44558 16.7597 9.34673 16.7446 8.50196 19.1686L8.50179 19.1682ZM15.2383 23.2721C15.9393 22.6664 16.9468 22.6803 17.5238 22.8561C17.1469 22.3978 16.2632 22.0217 16.0043 21.9761C15.8066 22.0493 15.2381 22.6245 15.2381 23.2721H15.2383ZM25.1427 8.985L24.0001 7.5L22.8571 8.985L23.9998 10.5476L25.1429 8.985H25.1427ZM31.9998 13.2273L31.2379 12.0714L30.4762 13.2273L31.2377 14.3571L32 13.2273H31.9998ZM38.857 42.2415L37.7144 41.0239L36.5714 42.2413L37.7144 43.3096L38.8571 42.2413L38.857 42.2415ZM17.5237 13.2273L16.7616 12.0714L16 13.2273L16.7618 14.3571L17.5238 13.2273H17.5237ZM15.3362 18.1665H18.474C21.1121 18.1665 22.299 16.5299 22.6577 15.1107H25.342C25.7009 16.5299 26.8872 18.1663 29.5261 18.1663H32.6639C32.6639 18.1663 33.2128 17.4137 33.3505 17.0411C33.846 15.7001 33.2128 15.0745 32.2888 15.0745L31.0944 16.1686L29.9002 15.0748C28.9763 15.0748 28.343 15.7001 28.8386 17.0412C28.9019 17.2126 29.0533 17.4645 29.1967 17.686C28.0833 17.5314 26.662 16.761 26.3504 15.1107C26.3504 15.1107 27.173 13.79 27.3797 13.2555C28.1214 11.3332 27.174 10.5476 25.7885 10.5476L23.9998 12.6725L22.2111 10.5476C20.8256 10.5476 19.8784 11.3332 20.6209 13.2555C20.8264 13.79 21.65 15.1109 21.65 15.1109C21.3376 16.761 19.9166 17.5314 18.8032 17.6862C18.9473 17.4643 19.098 17.2126 19.161 17.0411C19.6557 15.7001 19.0242 15.0746 18.0996 15.0746L16.9051 16.1687L15.7106 15.075C14.7862 15.075 14.1546 15.7002 14.6493 17.0414C14.787 17.4139 15.3367 18.1667 15.3367 18.1667L15.3362 18.1665ZM47.4952 27.475C46.9023 27.7758 43.4242 29.4084 38.9689 28.8045C39.0151 28.5916 39.0543 28.3771 39.0864 28.1616C42.0516 27.8062 44.462 27.3021 45.9981 26.446C47.749 25.4693 48.5147 23.1379 47.6309 21.4036C47.608 21.3599 47.5445 21.352 47.5129 21.3889C47.0284 21.9476 43.9833 25.2672 39.1854 26.2992C39.1732 26.0501 39.1505 25.8016 39.1174 25.5544C41.4477 24.2302 43.7225 22.7044 44.8062 21.3092C46.4435 19.1997 46.2929 16.5089 44.7347 15.137C44.7185 15.1231 44.6971 15.1168 44.676 15.1198C44.6549 15.1228 44.636 15.1348 44.6243 15.1526C44.1314 15.9678 39.5167 23.4417 34.4503 26.6686C34.3885 26.7082 34.3262 26.747 34.2634 26.785C34.1181 26.8734 34.1022 27.0627 34.2257 27.175C34.8101 27.7054 35.173 28.4436 35.173 29.2633C35.173 30.6886 34.0769 31.8738 32.6279 32.131C31.8916 32.274 30.8289 32.2324 29.8078 31.894C29.7618 31.8792 29.7143 31.9096 29.7143 31.9558V36.4691C29.7143 36.5418 29.8245 36.5598 29.8504 36.4905C30.4713 34.8425 32.3291 34.4925 33.1417 34.4925C33.4341 36.2535 33.9564 37.7122 34.6348 38.4973C35.7398 39.7731 37.544 39.7552 38.3263 38.8732C38.3391 38.8585 38.3446 38.8388 38.3412 38.8197C38.3377 38.8005 38.3258 38.7839 38.3087 38.7746C37.8491 38.51 35.2191 36.8918 34.6927 34.2402C34.8993 34.17 35.1013 34.0867 35.2975 33.9909C36.1465 35.3988 37.3822 36.6527 38.3769 37.1317C40.048 37.9348 41.5777 37.5442 42.2561 36.3684C42.2807 36.327 42.2506 36.2754 42.2007 36.2708C41.1671 36.1881 37.995 35.277 36.6444 33.0575C36.8006 32.9153 36.9498 32.7656 37.0914 32.6089C38.505 33.6872 40.5031 34.6404 41.9337 34.835C43.6078 35.0631 45.5045 34.5277 45.5504 32.577C45.5512 32.538 45.5163 32.506 45.475 32.5083C44.8797 32.5445 40.9398 32.7162 38.1323 31.1013C38.2298 30.9154 38.3208 30.7262 38.405 30.534C38.405 30.534 42.6471 31.5389 44.6571 31.2061C46.6545 30.8758 47.8244 29.3836 47.5986 27.5271C47.5921 27.4811 47.5383 27.4537 47.4953 27.4755L47.4952 27.475ZM9.59441 30.5331C9.67883 30.7254 9.77002 30.9147 9.86779 31.1005C7.06099 32.7147 3.12263 32.5443 2.5247 32.5076C2.48271 32.5053 2.44762 32.5389 2.4486 32.5772C2.49534 34.5272 4.39146 35.0625 6.06554 34.8344C7.49558 34.6398 9.4947 33.6866 10.9079 32.6084C11.0497 32.7649 11.1989 32.9146 11.3549 33.057C10.0036 35.2765 6.83189 36.1878 5.79839 36.2704C5.74837 36.2754 5.71918 36.3268 5.74296 36.3682C6.42141 37.5441 7.95117 37.9347 9.62311 37.1316C10.6169 36.6525 11.8526 35.3986 12.7013 33.9907C12.8977 34.0862 13.0998 34.1694 13.3065 34.24C12.78 36.8916 10.15 38.5096 9.69035 38.7747C9.67335 38.7841 9.6615 38.8007 9.65809 38.8198C9.65469 38.8389 9.66009 38.8586 9.6728 38.8733C10.4551 39.7552 12.26 39.7731 13.365 38.4973C14.0435 37.712 14.5651 36.2533 14.8574 34.4922C15.6708 34.4922 17.5281 34.8423 18.1488 36.4902C18.1755 36.5597 18.2857 36.5416 18.2857 36.4688V31.9554C18.2857 31.9094 18.2373 31.8789 18.1914 31.8937C17.1705 32.2322 16.1075 32.2733 15.372 32.1303C13.9223 31.8734 12.826 30.6882 12.826 29.263C12.826 28.4436 13.19 27.7046 13.7732 27.1742C13.8978 27.0625 13.8809 26.8731 13.7368 26.7847C13.6734 26.7468 13.6106 26.7081 13.5482 26.6685C8.48465 23.4433 3.87242 15.9741 3.37518 15.1537C3.36337 15.1353 3.34422 15.123 3.32266 15.1198C3.30109 15.1167 3.27922 15.123 3.26268 15.1373C1.70668 16.51 1.55548 19.1998 3.19298 21.3088C4.27667 22.7041 6.55162 24.23 8.88119 25.5543C8.84836 25.8014 8.82593 26.0498 8.81395 26.2988C4.01985 25.2677 0.9769 21.9535 0.487863 21.3908C0.455064 21.3524 0.390285 21.3601 0.368146 21.404C-0.514154 23.1394 0.251709 25.469 2.00089 26.4457C3.53721 27.3019 5.94779 27.806 8.913 28.1614C8.94504 28.377 8.98415 28.5914 9.03026 28.8043C4.5794 29.4075 1.10301 27.7785 0.505411 27.4755C0.461132 27.4528 0.407341 27.4809 0.401765 27.5277C0.176598 29.3841 1.34573 30.8749 3.3432 31.2054C5.35265 31.5382 9.59474 30.5332 9.59474 30.5332L9.59441 30.5331ZM37.4792 44.6449L35.9208 43.411C35.2988 43.7837 34.8418 44.3753 34.6643 45.069C33.7268 45.2009 31.1714 44.6297 31.4199 44.2509C34.2207 40.2866 32.0785 37.9262 29.5037 38.0576V40.7197C29.5037 41.5749 28.7622 42.2678 27.8487 42.2678H26.0707C24.7953 42.2678 23.965 43.5579 23.965 43.5579C23.965 43.5579 23.1347 42.2677 21.8594 42.2677H20.0815C19.1672 42.2677 18.4274 41.5747 18.4274 40.7197V38.0576C15.8526 37.9262 13.7087 40.2864 16.5103 44.2507C16.7567 44.6257 14.1298 45.226 12.8978 45.0743C12.5731 44.7355 12.1048 44.5219 11.5806 44.5219C11.3576 44.522 11.1365 44.562 10.9275 44.64C10.9275 44.64 6.08586 40.0269 5.99724 39.9818L6.03692 39.8886C6.31303 39.3695 5.89093 38.8038 5.62408 38.8438C5.93408 38.4694 5.94847 36.8314 4.22867 36.4524C4.27909 36.7815 4.30472 37.453 4.30472 37.453C4.30472 37.453 2.97742 36.7309 2.3108 37.3542C1.72519 38.0518 2.5378 39.3174 2.5378 39.3174C2.5378 39.3174 1.85861 39.3341 1.52381 39.3055C2.01601 40.9809 3.66703 40.8623 4.02415 40.5317C4.001 40.7979 4.59786 41.1777 5.10378 40.8732L5.32599 40.7651C5.36517 40.8178 10.0807 45.3012 10.0807 45.3012C9.86407 45.6247 9.76106 46.0216 9.83216 46.4449C9.94409 47.1063 10.4913 47.6545 11.1907 47.7969C11.6846 47.8967 12.1488 47.8002 12.5211 47.5809L13.7694 48.7468C13.8802 48.8482 14.0306 48.9115 14.1983 48.8995C14.5037 48.8789 14.7323 48.63 14.7092 48.3443C14.6992 48.2153 14.6338 48.1047 14.5435 48.0207C14.5237 47.9987 13.2721 46.8294 13.2721 46.8294C14.3046 46.1012 16.2283 45.5879 17.8247 45.5879C18.1051 45.5879 18.2371 45.349 18.1405 45.1149C17.4172 43.3646 18.9721 42.0965 20.5808 43.1287C21.2825 43.5787 21.9953 44.4654 22.5323 45.9446C19.893 46.5877 16.5791 48.3594 15.9087 50.2934C15.6504 51.0401 16.5032 52.058 17.5389 52.2628C17.5572 52.2669 17.5763 52.2634 17.5921 52.2531C17.6078 52.2429 17.6188 52.2267 17.6227 52.2083C18.1636 49.3211 21.2491 47.1697 22.8545 46.8043C22.935 47.0217 22.9087 46.9514 22.9894 47.168C21.2408 48.0002 19.5452 49.7552 19.0611 51.8419C18.8387 52.7974 19.8977 53.6587 20.7718 53.8945C20.8158 53.9061 20.8589 53.8755 20.8614 53.8329C21.0276 51.1942 22.1854 48.9531 23.2227 47.9337C23.2511 48.133 23.2725 48.3334 23.2867 48.5343C23.2867 48.5343 22.2246 51.5121 22.2246 53.6849C22.2246 54.6958 23.7175 55.4014 23.9379 55.5C24.2135 55.4014 25.7053 54.6958 25.7053 53.6849C25.7053 51.512 24.6436 48.5341 24.6436 48.5341C24.6581 48.3332 24.6797 48.1329 24.7084 47.9335C25.745 48.9534 26.9035 51.1933 27.069 53.8321C27.071 53.8531 27.082 53.8721 27.0992 53.8842C27.1165 53.8962 27.1381 53.9 27.1583 53.8945C28.0336 53.6587 29.0915 52.7974 28.8702 51.8419C28.3851 49.7555 26.6902 48.0002 24.9418 47.168C25.0217 46.9514 24.9952 47.0216 25.0761 46.8041C26.6823 47.1695 29.7666 49.3209 30.3077 52.2081C30.316 52.2464 30.3535 52.2707 30.3916 52.2625C31.4265 52.0578 32.2807 51.0396 32.0209 50.2931C31.3521 48.3591 28.0374 46.5873 25.3977 45.9443C25.9357 44.4652 26.6486 43.5784 27.3502 43.1283C28.958 42.0961 30.5131 43.3641 29.7897 45.1146C29.6932 45.3487 29.8241 45.5876 30.1055 45.5876C31.9115 45.5876 34.1364 46.2439 35.0168 47.1244C35.5794 47.9739 36.6189 48.5173 37.7921 48.401C39.125 48.2696 40.2119 47.262 40.362 46.0162C40.4931 44.9247 39.9321 43.9448 39.038 43.4107L37.4789 44.6447L37.4792 44.6449ZM25.8154 36.7132C26.3473 36.5145 27.181 36.6753 27.1527 37.4484C27.1459 37.6239 27.3899 37.6239 27.4077 37.4448C27.5669 36.287 26.79 35.9536 25.9768 36.0892C25.8757 35.6911 25.7931 35.3431 25.699 34.9984C25.6239 34.7193 25.5963 34.1952 25.9171 34.1952C26.09 34.1952 26.0205 34.6826 26.0042 34.8926C25.9899 35.0768 26.0557 35.1883 26.2042 35.1936C26.2967 35.1974 26.4124 35.0784 26.4814 34.9995C26.9468 34.4695 27.0548 33.6491 26.5096 33.2535C26.0534 32.9213 24.9111 33.1685 24.5972 33.6416C24.5497 33.4634 24.3232 33.1691 24.2145 33.041C24.1089 32.9159 24.0815 32.8302 24.2275 32.7205C24.2964 32.6672 24.5047 32.4586 24.5047 32.2433C24.5047 32.1161 24.4065 31.881 24.0951 31.881C23.8493 31.881 23.5761 32.0523 23.5761 32.4344C23.5761 32.5194 23.5967 32.6103 23.651 32.7082C23.4958 32.6824 23.0738 32.6929 22.8571 32.7468L25.8528 41.0238C26.7103 40.5977 27.3389 39.9229 27.3389 39.1987C27.3389 38.5816 26.4361 38.7863 25.9977 39.2678C25.8567 38.4852 25.7313 37.7626 25.5941 37.0424C25.5567 36.8437 25.657 36.7724 25.8154 36.7126V36.7132ZM21.833 31.3252L22.4757 33.0863C21.9255 33.2155 21.0406 33.6111 21.0406 34.1352C21.0406 34.8329 22.2923 35.2872 23.0159 35.2327C22.98 35.3919 23.0214 35.5337 23.1339 35.6634C22.8713 35.6634 22.3758 35.784 22.2131 35.9569C21.8293 35.6044 21.229 35.476 20.9436 35.6905C20.6568 35.9068 20.6482 36.2731 20.9476 36.6872C21.1562 36.9739 21.2345 37.2567 21 37.5888C21.8722 37.5888 21.551 36.4703 21.8927 36.4703C21.8479 36.6872 21.8752 36.9381 21.9745 37.2165C22.0402 37.4016 22.0402 37.533 21.9276 37.711C21.6462 38.1548 21.2086 39.1739 21.2678 40.0956C20.9819 40.094 20.8365 40.0251 20.9372 39.6397C20.9748 39.4964 20.885 39.394 20.7661 39.5708C20.6348 39.7657 20.5714 40.0988 20.5714 40.2411C20.5714 41.0617 21.5628 41.2269 21.9409 41.0534C23.0353 42.0982 25.1851 41.8194 25.9048 41.4689L22.1199 31.2255C22.0426 31.032 21.7651 31.1245 21.833 31.3255V31.3252ZM21.3399 40.2619C21.2661 39.7555 21.8266 38.85 22.5396 37.9762C22.3878 38.5457 22.4821 39.5269 22.7797 39.8649C22.2625 39.8649 21.6483 39.987 21.3397 40.2619V40.2619H21.3399Z" fill="white"/>
</mask>
<g mask="url(#mask0)">
</g>
</g>
<defs>
<clipPath id="clip0">
</clipPath>
</defs>
</svg>
