<svg width="24" height="25" viewBox="0 0 24 25" fill="none" xmlns="http://www.w3.org/2000/svg">
<path fill-rule="evenodd" clip-rule="evenodd" d="M14.8835 7.73483C14.8835 6.42176 13.8078 5.35404 12.4853 5.35404C11.1638 5.35404 10.087 6.42176 10.087 7.73483C10.087 9.04686 11.1638 10.1153 12.4853 10.1153C13.8078 10.1153 14.8835 9.04686 14.8835 7.73483ZM18.2774 7.73483C18.2774 10.9053 15.6803 13.4843 12.4853 13.4843C9.29099 13.4843 6.69313 10.9053 6.69313 7.73483C6.69313 4.56331 9.29099 1.98364 12.4853 1.98364C15.6803 1.98364 18.2774 4.56331 18.2774 7.73483ZM18.207 16.7953C17.1597 17.4484 16.0226 17.9115 14.8436 18.1782L18.0815 21.3934C18.7449 22.0506 18.7449 23.118 18.0815 23.7759C17.4189 24.4338 16.3449 24.4338 15.683 23.7759L12.4994 20.6165L9.31863 23.7759C8.98696 24.1045 8.55237 24.269 8.11778 24.269C7.68388 24.269 7.24998 24.1045 6.91831 23.7759C6.25568 23.118 6.25568 22.0513 6.91762 21.3934L10.1559 18.1782C8.97691 17.9115 7.83983 17.4477 6.79251 16.7953C5.99991 16.2991 5.76182 15.2596 6.26122 14.472C6.75924 13.6833 7.80656 13.4459 8.60054 13.9421C10.9717 15.423 14.0264 15.4234 16.399 13.9421C17.1929 13.4459 18.2399 13.6833 18.739 14.472C19.2384 15.2589 18.9996 16.2991 18.207 16.7953Z" fill="white"/>
<mask id="mask0" mask-type="alpha" maskUnits="userSpaceOnUse" x="6" y="1" width="13" height="24">
<path fill-rule="evenodd" clip-rule="evenodd" d="M14.8835 7.73483C14.8835 6.42176 13.8078 5.35404 12.4853 5.35404C11.1638 5.35404 10.087 6.42176 10.087 7.73483C10.087 9.04686 11.1638 10.1153 12.4853 10.1153C13.8078 10.1153 14.8835 9.04686 14.8835 7.73483ZM18.2774 7.73483C18.2774 10.9053 15.6803 13.4843 12.4853 13.4843C9.29099 13.4843 6.69313 10.9053 6.69313 7.73483C6.69313 4.56331 9.29099 1.98364 12.4853 1.98364C15.6803 1.98364 18.2774 4.56331 18.2774 7.73483ZM18.207 16.7953C17.1597 17.4484 16.0226 17.9115 14.8436 18.1782L18.0815 21.3934C18.7449 22.0506 18.7449 23.118 18.0815 23.7759C17.4189 24.4338 16.3449 24.4338 15.683 23.7759L12.4994 20.6165L9.31863 23.7759C8.98696 24.1045 8.55237 24.269 8.11778 24.269C7.68388 24.269 7.24998 24.1045 6.91831 23.7759C6.25568 23.118 6.25568 22.0513 6.91762 21.3934L10.1559 18.1782C8.97691 17.9115 7.83983 17.4477 6.79251 16.7953C5.99991 16.2991 5.76182 15.2596 6.26122 14.472C6.75924 13.6833 7.80656 13.4459 8.60054 13.9421C10.9717 15.423 14.0264 15.4234 16.399 13.9421C17.1929 13.4459 18.2399 13.6833 18.739 14.472C19.2384 15.2589 18.9996 16.2991 18.207 16.7953Z" fill="white"/>
</mask>
<g mask="url(#mask0)">
<rect y="0.983643" width="24" height="24" rx="4" fill="#C7CCD1"/>
</g>
</svg>
