<svg width="25" height="24" viewBox="0 0 25 24" fill="none" xmlns="http://www.w3.org/2000/svg">
<path fill-rule="evenodd" clip-rule="evenodd" d="M6.01074 8C7.11531 8 8.01074 7.10457 8.01074 6C8.01074 4.89543 7.11531 4 6.01074 4C4.90617 4 4.01074 4.89543 4.01074 6C4.01074 7.10457 4.90617 8 6.01074 8ZM6.01074 14C7.11531 14 8.01074 13.1046 8.01074 12C8.01074 10.8954 7.11531 10 6.01074 10C4.90617 10 4.01074 10.8954 4.01074 12C4.01074 13.1046 4.90617 14 6.01074 14ZM8.01074 18C8.01074 19.1046 7.11531 20 6.01074 20C4.90617 20 4.01074 19.1046 4.01074 18C4.01074 16.8954 4.90617 16 6.01074 16C7.11531 16 8.01074 16.8954 8.01074 18ZM12.0107 8C13.1153 8 14.0107 7.10457 14.0107 6C14.0107 4.89543 13.1153 4 12.0107 4C10.9062 4 10.0107 4.89543 10.0107 6C10.0107 7.10457 10.9062 8 12.0107 8ZM14.0107 12C14.0107 13.1046 13.1153 14 12.0107 14C10.9062 14 10.0107 13.1046 10.0107 12C10.0107 10.8954 10.9062 10 12.0107 10C13.1153 10 14.0107 10.8954 14.0107 12ZM12.0107 20C13.1153 20 14.0107 19.1046 14.0107 18C14.0107 16.8954 13.1153 16 12.0107 16C10.9062 16 10.0107 16.8954 10.0107 18C10.0107 19.1046 10.9062 20 12.0107 20ZM20.0107 6C20.0107 7.10457 19.1153 8 18.0107 8C16.9062 8 16.0107 7.10457 16.0107 6C16.0107 4.89543 16.9062 4 18.0107 4C19.1153 4 20.0107 4.89543 20.0107 6ZM18.0107 14C19.1153 14 20.0107 13.1046 20.0107 12C20.0107 10.8954 19.1153 10 18.0107 10C16.9062 10 16.0107 10.8954 16.0107 12C16.0107 13.1046 16.9062 14 18.0107 14ZM20.0107 18C20.0107 19.1046 19.1153 20 18.0107 20C16.9062 20 16.0107 19.1046 16.0107 18C16.0107 16.8954 16.9062 16 18.0107 16C19.1153 16 20.0107 16.8954 20.0107 18Z" fill="white"/>
<mask id="mask0" mask-type="alpha" maskUnits="userSpaceOnUse" x="4" y="4" width="17" height="16">
<path fill-rule="evenodd" clip-rule="evenodd" d="M6.01074 8C7.11531 8 8.01074 7.10457 8.01074 6C8.01074 4.89543 7.11531 4 6.01074 4C4.90617 4 4.01074 4.89543 4.01074 6C4.01074 7.10457 4.90617 8 6.01074 8ZM6.01074 14C7.11531 14 8.01074 13.1046 8.01074 12C8.01074 10.8954 7.11531 10 6.01074 10C4.90617 10 4.01074 10.8954 4.01074 12C4.01074 13.1046 4.90617 14 6.01074 14ZM8.01074 18C8.01074 19.1046 7.11531 20 6.01074 20C4.90617 20 4.01074 19.1046 4.01074 18C4.01074 16.8954 4.90617 16 6.01074 16C7.11531 16 8.01074 16.8954 8.01074 18ZM12.0107 8C13.1153 8 14.0107 7.10457 14.0107 6C14.0107 4.89543 13.1153 4 12.0107 4C10.9062 4 10.0107 4.89543 10.0107 6C10.0107 7.10457 10.9062 8 12.0107 8ZM14.0107 12C14.0107 13.1046 13.1153 14 12.0107 14C10.9062 14 10.0107 13.1046 10.0107 12C10.0107 10.8954 10.9062 10 12.0107 10C13.1153 10 14.0107 10.8954 14.0107 12ZM12.0107 20C13.1153 20 14.0107 19.1046 14.0107 18C14.0107 16.8954 13.1153 16 12.0107 16C10.9062 16 10.0107 16.8954 10.0107 18C10.0107 19.1046 10.9062 20 12.0107 20ZM20.0107 6C20.0107 7.10457 19.1153 8 18.0107 8C16.9062 8 16.0107 7.10457 16.0107 6C16.0107 4.89543 16.9062 4 18.0107 4C19.1153 4 20.0107 4.89543 20.0107 6ZM18.0107 14C19.1153 14 20.0107 13.1046 20.0107 12C20.0107 10.8954 19.1153 10 18.0107 10C16.9062 10 16.0107 10.8954 16.0107 12C16.0107 13.1046 16.9062 14 18.0107 14ZM20.0107 18C20.0107 19.1046 19.1153 20 18.0107 20C16.9062 20 16.0107 19.1046 16.0107 18C16.0107 16.8954 16.9062 16 18.0107 16C19.1153 16 20.0107 16.8954 20.0107 18Z" fill="white"/>
</mask>
<g mask="url(#mask0)">
<rect x="0.0107422" width="24" height="24" rx="4" fill="#C7CCD1"/>
</g>
</svg>
