<svg width="25" height="24" viewBox="0 0 25 24" fill="none" xmlns="http://www.w3.org/2000/svg">
<path fill-rule="evenodd" clip-rule="evenodd" d="M14.7207 14H15.5107L20.5007 19L19.0107 20.49L14.0107 15.5V14.71L13.7407 14.43C12.6007 15.41 11.1207 16 9.51074 16C5.92074 16 3.01074 13.09 3.01074 9.5C3.01074 5.91 5.92074 3 9.51074 3C13.1007 3 16.0107 5.91 16.0107 9.5C16.0107 11.11 15.4207 12.59 14.4407 13.73L14.7207 14ZM5.01074 9.5C5.01074 11.99 7.02074 14 9.51074 14C12.0007 14 14.0107 11.99 14.0107 9.5C14.0107 7.01 12.0007 5 9.51074 5C7.02074 5 5.01074 7.01 5.01074 9.5Z" fill="white"/>
<mask id="mask0" mask-type="alpha" maskUnits="userSpaceOnUse" x="3" y="3" width="18" height="18">
<path fill-rule="evenodd" clip-rule="evenodd" d="M14.7207 14H15.5107L20.5007 19L19.0107 20.49L14.0107 15.5V14.71L13.7407 14.43C12.6007 15.41 11.1207 16 9.51074 16C5.92074 16 3.01074 13.09 3.01074 9.5C3.01074 5.91 5.92074 3 9.51074 3C13.1007 3 16.0107 5.91 16.0107 9.5C16.0107 11.11 15.4207 12.59 14.4407 13.73L14.7207 14ZM5.01074 9.5C5.01074 11.99 7.02074 14 9.51074 14C12.0007 14 14.0107 11.99 14.0107 9.5C14.0107 7.01 12.0007 5 9.51074 5C7.02074 5 5.01074 7.01 5.01074 9.5Z" fill="white"/>
</mask>
<g mask="url(#mask0)">
<rect x="0.0107422" width="24" height="24" rx="4" fill="#F4F7FB"/>
</g>
</svg>
