<svg width="24" height="25" viewBox="0 0 24 25" fill="none" xmlns="http://www.w3.org/2000/svg">
<path fill-rule="evenodd" clip-rule="evenodd" d="M20.5261 6.82937C21.4161 6.26777 22.099 5.37726 22.4194 4.31645C21.5862 4.83775 20.6654 5.21476 19.683 5.41886C18.8991 4.53485 17.7787 3.98364 16.5387 3.98364C14.1597 3.98364 12.2319 6.01817 12.2319 8.52719C12.2319 8.8834 12.2677 9.2305 12.3416 9.562C8.76211 9.3722 5.58813 7.56518 3.46188 4.81435C3.09086 5.48776 2.87885 6.26777 2.87885 7.09978C2.87885 8.6754 3.63937 10.0664 4.79556 10.8828C4.08928 10.8594 3.4249 10.6527 2.84311 10.3147V10.3706C2.84311 12.5728 4.32717 14.4098 6.30058 14.8258C5.93819 14.9324 5.55855 14.9857 5.16411 14.9857C4.88678 14.9857 4.6156 14.9584 4.35429 14.9051C4.90157 16.7095 6.49287 18.0251 8.37876 18.0602C6.90333 19.2796 5.04578 20.005 3.028 20.005C2.6804 20.005 2.3365 19.9855 2 19.9426C3.90685 21.2309 6.17116 21.9836 8.60433 21.9836C16.53 21.9836 20.8614 15.0598 20.8614 9.055C20.8614 8.8574 20.859 8.66109 20.8503 8.46739C21.6922 7.82649 22.4244 7.02568 23 6.11437C22.2272 6.47577 21.3964 6.72017 20.5261 6.82937Z" fill="white"/>
<mask id="mask0" mask-type="alpha" maskUnits="userSpaceOnUse" x="2" y="3" width="21" height="19">
<path fill-rule="evenodd" clip-rule="evenodd" d="M20.5261 6.82937C21.4161 6.26777 22.099 5.37726 22.4194 4.31645C21.5862 4.83775 20.6654 5.21476 19.683 5.41886C18.8991 4.53485 17.7787 3.98364 16.5387 3.98364C14.1597 3.98364 12.2319 6.01817 12.2319 8.52719C12.2319 8.8834 12.2677 9.2305 12.3416 9.562C8.76211 9.3722 5.58813 7.56518 3.46188 4.81435C3.09086 5.48776 2.87885 6.26777 2.87885 7.09978C2.87885 8.6754 3.63937 10.0664 4.79556 10.8828C4.08928 10.8594 3.4249 10.6527 2.84311 10.3147V10.3706C2.84311 12.5728 4.32717 14.4098 6.30058 14.8258C5.93819 14.9324 5.55855 14.9857 5.16411 14.9857C4.88678 14.9857 4.6156 14.9584 4.35429 14.9051C4.90157 16.7095 6.49287 18.0251 8.37876 18.0602C6.90333 19.2796 5.04578 20.005 3.028 20.005C2.6804 20.005 2.3365 19.9855 2 19.9426C3.90685 21.2309 6.17116 21.9836 8.60433 21.9836C16.53 21.9836 20.8614 15.0598 20.8614 9.055C20.8614 8.8574 20.859 8.66109 20.8503 8.46739C21.6922 7.82649 22.4244 7.02568 23 6.11437C22.2272 6.47577 21.3964 6.72017 20.5261 6.82937Z" fill="white"/>
</mask>
<g mask="url(#mask0)">
<rect y="0.983643" width="24" height="24" rx="4" fill="#C7CCD1"/>
</g>
</svg>
