<svg width="24" height="25" viewBox="0 0 24 25" fill="none" xmlns="http://www.w3.org/2000/svg">
<path fill-rule="evenodd" clip-rule="evenodd" d="M13.177 19.3675C13.177 19.3675 13.6101 19.3202 13.832 19.0863C14.0351 18.872 14.028 18.4676 14.028 18.4676C14.028 18.4676 14.001 16.5791 14.8943 16.3002C15.7747 16.026 16.9051 18.1265 18.1048 18.9342C19.011 19.5449 19.6989 19.4113 19.6989 19.4113L22.9046 19.3675C22.9046 19.3675 24.5809 19.2661 23.7862 17.9721C23.7204 17.8661 23.3225 17.0146 21.4033 15.2655C19.3925 13.4346 19.6625 13.7307 22.0829 10.5632C23.5573 8.63437 24.1465 7.45678 23.9622 6.95325C23.7873 6.47162 22.7027 6.59952 22.7027 6.59952L19.0943 6.62141C19.0943 6.62141 18.8267 6.58569 18.6283 6.70207C18.4346 6.81614 18.309 7.0823 18.309 7.0823C18.309 7.0823 17.7385 8.57445 16.9767 9.84422C15.3697 12.522 14.7276 12.6637 14.4647 12.4978C13.8531 12.1095 14.0057 10.94 14.0057 10.1092C14.0057 7.51324 14.4072 6.43129 13.2251 6.1513C12.8331 6.05796 12.5443 5.9969 11.5407 5.98653C10.253 5.97385 9.16363 5.99113 8.54619 6.28726C8.13535 6.48429 7.81841 6.92445 8.0121 6.9498C8.25039 6.98091 8.79035 7.09267 9.07677 7.47522C9.44653 7.96953 9.43362 9.07798 9.43362 9.07798C9.43362 9.07798 9.64608 12.1337 8.93708 12.5128C8.45111 12.7732 7.78437 12.242 6.35111 9.81196C5.61746 8.56754 5.06341 7.19177 5.06341 7.19177C5.06341 7.19177 4.95659 6.93482 4.76525 6.79655C4.53401 6.62947 4.2112 6.57762 4.2112 6.57762L0.78241 6.59952C0.78241 6.59952 0.267094 6.61334 0.0781054 6.83342C-0.0897538 7.02815 0.0651932 7.43258 0.0651932 7.43258C0.0651932 7.43258 2.74977 13.5982 5.79002 16.7058C8.57789 19.5541 11.7426 19.3675 11.7426 19.3675H13.177Z" fill="white"/>
<mask id="mask0" mask-type="alpha" maskUnits="userSpaceOnUse" x="0" y="5" width="24" height="15">
<path fill-rule="evenodd" clip-rule="evenodd" d="M13.177 19.3675C13.177 19.3675 13.6101 19.3202 13.832 19.0863C14.0351 18.872 14.028 18.4676 14.028 18.4676C14.028 18.4676 14.001 16.5791 14.8943 16.3002C15.7747 16.026 16.9051 18.1265 18.1048 18.9342C19.011 19.5449 19.6989 19.4113 19.6989 19.4113L22.9046 19.3675C22.9046 19.3675 24.5809 19.2661 23.7862 17.9721C23.7204 17.8661 23.3225 17.0146 21.4033 15.2655C19.3925 13.4346 19.6625 13.7307 22.0829 10.5632C23.5573 8.63437 24.1465 7.45678 23.9622 6.95325C23.7873 6.47162 22.7027 6.59952 22.7027 6.59952L19.0943 6.62141C19.0943 6.62141 18.8267 6.58569 18.6283 6.70207C18.4346 6.81614 18.309 7.0823 18.309 7.0823C18.309 7.0823 17.7385 8.57445 16.9767 9.84422C15.3697 12.522 14.7276 12.6637 14.4647 12.4978C13.8531 12.1095 14.0057 10.94 14.0057 10.1092C14.0057 7.51324 14.4072 6.43129 13.2251 6.1513C12.8331 6.05796 12.5443 5.9969 11.5407 5.98653C10.253 5.97385 9.16363 5.99113 8.54619 6.28726C8.13535 6.48429 7.81841 6.92445 8.0121 6.9498C8.25039 6.98091 8.79035 7.09267 9.07677 7.47522C9.44653 7.96953 9.43362 9.07798 9.43362 9.07798C9.43362 9.07798 9.64608 12.1337 8.93708 12.5128C8.45111 12.7732 7.78437 12.242 6.35111 9.81196C5.61746 8.56754 5.06341 7.19177 5.06341 7.19177C5.06341 7.19177 4.95659 6.93482 4.76525 6.79655C4.53401 6.62947 4.2112 6.57762 4.2112 6.57762L0.78241 6.59952C0.78241 6.59952 0.267094 6.61334 0.0781054 6.83342C-0.0897538 7.02815 0.0651932 7.43258 0.0651932 7.43258C0.0651932 7.43258 2.74977 13.5982 5.79002 16.7058C8.57789 19.5541 11.7426 19.3675 11.7426 19.3675H13.177Z" fill="white"/>
</mask>
<g mask="url(#mask0)">
<rect y="0.983643" width="24" height="24" rx="4" fill="#C7CCD1"/>
</g>
</svg>
